<?xml version="1.0" encoding="UTF-8"?>
<svg xmlns="http://www.w3.org/2000/svg" viewBox="0 0 691.5 420.81">
  <defs>
    <style>
      .cls-1, .cls-2 {
        fill: #fff;
      }

      .cls-3 {
        fill: #455a64;
      }

      .cls-4 {
        fill: #e0e0e0;
      }

      .cls-5 {
        fill: #e8505b;
      }

      .cls-2, .cls-6 {
        opacity: .8;
      }

      .cls-7 {
        opacity: .4;
      }

      .cls-8 {
        fill: #eb996e;
      }

      .cls-9 {
        opacity: .3;
      }

      .cls-10 {
        fill: #ffbe9d;
      }

      .cls-11 {
        fill: #ebebeb;
      }

      .cls-12 {
        fill: #263238;
      }
    </style>
  </defs>
  <g id="Background_Complete" data-name="Background Complete">
    <g>
      <path class="cls-11" d="m433.62,407.99c4.79-2.69,10.94-2.79,15.82-.26,4.88,2.53,8.34,7.61,8.9,13.08-10.1,0-20.05-2.35-24.72-12.82"/>
      <g>
        <path class="cls-11" d="m445.39,397.65c6.76,2.21,14.59.81,20.15-3.63,5.56-4.43,8.68-11.75,8.03-18.83-12.82,2.51-24.87,8-28.18,22.46"/>
        <path class="cls-4" d="m401.42,414.73s.21-.1.63-.25c.47-.16,1.08-.37,1.84-.62,1.61-.52,3.93-1.28,6.78-2.27,5.7-1.97,13.53-4.83,21.97-8.51,4.21-1.85,8.18-3.73,11.73-5.53,3.54-1.83,6.68-3.58,9.25-5.15,2.55-1.61,4.58-2.96,5.87-4.04,1.32-1.04,1.97-1.72,2.01-1.67.01.01-.14.18-.46.5-.32.31-.76.8-1.43,1.33-1.27,1.13-3.28,2.54-5.81,4.19-2.56,1.62-5.68,3.41-9.22,5.26-3.55,1.83-7.52,3.73-11.74,5.58-8.46,3.68-16.32,6.5-22.06,8.38-2.87.95-5.21,1.65-6.83,2.11-.77.22-1.39.39-1.87.53-.43.12-.66.17-.66.15Z"/>
      </g>
      <path class="cls-4" d="m446.59,413.87c-.05.07-1.22-.74-3.24-1.83-2.01-1.09-4.91-2.4-8.27-3.32-3.37-.92-6.53-1.27-8.81-1.35-2.29-.09-3.71.02-3.72-.07,0-.04.35-.09.99-.16.64-.08,1.58-.13,2.73-.13,2.31-.01,5.52.29,8.94,1.22,3.41.94,6.33,2.32,8.31,3.5.99.59,1.77,1.11,2.29,1.5.52.39.79.62.77.65Z"/>
    </g>
    <g>
      <path class="cls-11" d="m208.36,368.91c-2.43,6.49-1.39,14.17,2.7,19.77s11.08,8.94,18,8.59c-1.92-12.59-6.76-24.54-20.7-28.36"/>
      <path class="cls-4" d="m206.39,362.73c.08-.02.43,1.38,1.15,3.57.72,2.19,1.89,5.17,3.55,8.28,1.67,3.1,3.5,5.72,4.93,7.54,1.43,1.82,2.4,2.88,2.33,2.94-.03.02-.29-.22-.76-.67-.47-.45-1.11-1.15-1.86-2.03-1.51-1.77-3.42-4.39-5.1-7.53-1.68-3.14-2.8-6.18-3.44-8.42-.32-1.12-.54-2.04-.66-2.68-.12-.64-.18-1-.14-1Z"/>
    </g>
    <g>
      <path class="cls-11" d="m8.52,116.57c-3.77,10.05-2.15,21.95,4.18,30.62s17.17,13.84,27.89,13.31c-2.97-19.5-10.47-38.01-32.07-43.93"/>
      <path class="cls-4" d="m5.46,107.01s.2.52.47,1.49c.26.97.67,2.36,1.22,4.07,1.1,3.41,2.89,8.04,5.47,12.86,2.59,4.82,5.45,8.88,7.69,11.68,1.11,1.4,2.05,2.52,2.71,3.27.66.76,1.01,1.19.98,1.22-.03.02-.43-.36-1.13-1.08-.71-.71-1.69-1.79-2.85-3.17-2.32-2.76-5.25-6.81-7.86-11.66-2.6-4.86-4.35-9.55-5.36-13-.51-1.73-.87-3.14-1.07-4.13-.21-.99-.31-1.53-.27-1.54Z"/>
    </g>
    <g>
      <path class="cls-11" d="m42.31,315.62c-5.4,4.35-8.4,11.49-7.73,18.39.67,6.9,4.99,13.33,11.13,16.56,4.76-11.81,6.67-24.56-3.39-34.95"/>
      <path class="cls-4" d="m43.75,309.3c.08.03-.33,1.4-.82,3.66-.49,2.26-1.01,5.41-1.16,8.93-.14,3.52.1,6.71.41,9,.3,2.29.6,3.7.51,3.72-.03,0-.14-.33-.31-.96-.17-.63-.37-1.55-.57-2.7-.4-2.29-.71-5.52-.56-9.08.15-3.56.73-6.75,1.32-9,.29-1.13.57-2.03.79-2.64.22-.61.36-.95.39-.93Z"/>
    </g>
    <g>
      <path class="cls-11" d="m227.89,62.76c6.2,3.09,13.95,2.83,19.94-.66s10.03-10.11,10.39-17.03c-12.72.62-25.1,4.21-30.33,17.69"/>
      <path class="cls-4" d="m221.54,64.08c-.01-.09,1.41-.28,3.67-.78,2.26-.49,5.34-1.35,8.6-2.68,3.26-1.34,6.05-2.9,8.01-4.13,1.96-1.23,3.11-2.09,3.16-2.02.02.03-.24.27-.75.69-.5.42-1.25.98-2.21,1.64-1.92,1.32-4.72,2.95-8.01,4.31-3.3,1.35-6.43,2.16-8.73,2.56-1.15.2-2.08.33-2.73.38-.65.06-1.01.07-1.01.04Z"/>
    </g>
    <g>
      <path class="cls-11" d="m201.97,60.94c8.93-1.92,16.71-8.55,20.01-17.07,3.3-8.52,2.02-18.66-3.29-26.1-12.6,11.09-22.42,24.98-16.72,43.17"/>
      <path class="cls-4" d="m196.52,67.52s.28-.39.84-1.03c.57-.63,1.38-1.57,2.34-2.75,1.93-2.36,4.42-5.77,6.69-9.83,2.26-4.07,3.85-7.98,4.84-10.87.5-1.44.87-2.62,1.11-3.44.25-.82.4-1.27.43-1.26.03,0-.05.47-.24,1.31-.18.84-.5,2.04-.95,3.5-.9,2.93-2.46,6.9-4.73,11-2.29,4.1-4.84,7.51-6.86,9.82-1.01,1.16-1.86,2.06-2.48,2.66-.61.6-.96.92-.99.89Z"/>
    </g>
    <g>
      <path class="cls-11" d="m284,403.5c1.89,3.72,5.72,6.38,9.87,6.85,4.15.47,8.48-1.28,11.14-4.49-6.36-4.28-13.64-7-21.01-2.37"/>
      <path class="cls-4" d="m280.46,401.86c.08-.15,3.09,1.6,7.2,2.64,4.1,1.07,7.58.98,7.58,1.14,0,.06-.86.17-2.27.13-1.41-.03-3.35-.24-5.44-.77-2.08-.54-3.89-1.29-5.14-1.93-1.25-.65-1.96-1.15-1.93-1.21Z"/>
    </g>
    <g>
      <path class="cls-11" d="m376.7,44.46c2.57,3.29,6.85,5.16,11.01,4.81s8.07-2.89,10.06-6.56c-7.07-2.96-14.73-4.23-21.07,1.74"/>
      <path class="cls-4" d="m372.91,43.54c.05-.16,3.34.98,7.57,1.2,4.23.26,7.63-.51,7.66-.34.01.06-.81.33-2.2.57-1.39.24-3.34.41-5.49.29-2.15-.12-4.07-.51-5.42-.9-1.35-.39-2.15-.75-2.12-.81Z"/>
    </g>
    <g>
      <path class="cls-11" d="m616.94,75.23c6.68,1.84,14.23.11,19.44-4.46,5.2-4.57,7.9-11.84,6.94-18.69-12.36,3.04-23.82,8.93-26.37,23.16"/>
      <path class="cls-4" d="m610.96,77.74c-.03-.08,1.33-.55,3.45-1.47,2.12-.92,4.98-2.35,7.92-4.28,2.94-1.94,5.38-4,7.07-5.59,1.68-1.58,2.65-2.64,2.71-2.59.03.02-.19.31-.6.81-.41.51-1.04,1.21-1.86,2.04-1.63,1.66-4.06,3.8-7.04,5.76-2.98,1.95-5.9,3.35-8.07,4.18-1.09.42-1.98.72-2.6.9-.63.18-.98.26-.99.23Z"/>
    </g>
    <g>
      <path class="cls-11" d="m640.6,380.01c11.74-2.71,21.87-11.62,26.05-22.93,4.18-11.3,2.29-24.66-4.87-34.36-16.4,14.89-29.06,33.4-21.18,57.28"/>
      <path class="cls-4" d="m633.54,388.81s.37-.51,1.11-1.36c.75-.84,1.8-2.09,3.05-3.66,1.26-1.57,2.68-3.5,4.18-5.7,1.47-2.21,3.01-4.71,4.47-7.41,1.44-2.71,2.67-5.37,3.7-7.82,1.01-2.46,1.83-4.71,2.44-6.63.62-1.92,1.08-3.48,1.37-4.57.3-1.09.48-1.69.51-1.68.03,0-.08.62-.32,1.73-.23,1.11-.64,2.69-1.21,4.63-.57,1.94-1.36,4.22-2.35,6.71-1.01,2.48-2.24,5.16-3.69,7.88-1.47,2.72-3.03,5.22-4.53,7.43-1.53,2.2-2.99,4.12-4.29,5.66-1.3,1.55-2.39,2.77-3.19,3.57-.79.81-1.24,1.24-1.26,1.22Z"/>
    </g>
  </g>
  <g id="Capa_8" data-name="Capa 8">
    <g>
      <path class="cls-5" d="m504.85,253.93c-6.32-35.25-36.58-66.03-72.27-68.94-19.45-1.58-39,4.55-58.37,2.21-16.25-1.96-31.68-10.1-42.48-22.4-15.98-18.2-21.42-44.09-38.35-61.42-23.34-23.88-64.08-24.26-92.47-6.69-28.4,17.57-45.57,49.28-53.43,81.73l-.31,9.87c-1.71,33.66,7.14,72.79,26.68,102.79,19.79,30.4,32.8,42.95,68.86,64.81,30.62,18.56,90.58,26.72,126.38,27.58,35.8.86,72.57-9.81,99.5-33.42,26.92-23.61,42.59-60.89,36.28-96.13Z"/>
      <g class="cls-6">
        <path class="cls-1" d="m504.85,253.93c-6.32-35.25-36.58-66.03-72.27-68.94-19.45-1.58-39,4.55-58.37,2.21-16.25-1.96-31.68-10.1-42.48-22.4-15.98-18.2-21.42-44.09-38.35-61.42-23.34-23.88-64.08-24.26-92.47-6.69-28.4,17.57-45.57,49.28-53.43,81.73l-.31,9.87c-1.71,33.66,7.14,72.79,26.68,102.79,19.79,30.4,32.8,42.95,68.86,64.81,30.62,18.56,90.58,26.72,126.38,27.58,35.8.86,72.57-9.81,99.5-33.42,26.92-23.61,42.59-60.89,36.28-96.13Z"/>
      </g>
    </g>
    <g>
      <circle class="cls-5" cx="522.85" cy="377.29" r="17.25" transform="translate(74.38 840.53) rotate(-81.74)"/>
      <circle class="cls-2" cx="522.85" cy="377.29" r="17.25" transform="translate(74.38 840.53) rotate(-81.74)"/>
    </g>
  </g>
  <g id="_404" data-name="404">
    <g>
      <path class="cls-5" d="m401.79,244.58c.33,34.43-7.18,60.75-22.52,78.97-15.35,18.22-36.36,27.45-63.03,27.7-26.8.26-48.1-8.57-63.91-26.49-15.81-17.91-23.88-44.08-24.22-78.52l-.58-60.56c-.33-34.31,7.18-60.63,22.52-78.97,15.34-18.33,36.41-27.63,63.21-27.89,26.67-.26,47.92,8.63,63.73,26.67s23.89,44.21,24.22,78.52l.58,60.56Zm-44.84-66.92c-.21-21.68-4-37.7-11.37-48.04-7.37-10.35-18.03-15.45-31.97-15.32-13.94.13-24.47,5.44-31.58,15.93-7.11,10.49-10.57,26.57-10.36,48.25l.71,73.58c.21,21.81,4.03,37.91,11.47,48.32,7.43,10.41,18.12,15.54,32.07,15.41,13.94-.13,24.44-5.44,31.49-15.93,7.05-10.49,10.47-26.69,10.26-48.62l-.71-73.58Z"/>
      <g class="cls-7">
        <path d="m401.79,244.58c.33,34.43-7.18,60.75-22.52,78.97-15.35,18.22-36.36,27.45-63.03,27.7-26.8.26-48.1-8.57-63.91-26.49-15.81-17.91-23.88-44.08-24.22-78.52l-.58-60.56c-.33-34.31,7.18-60.63,22.52-78.97,15.34-18.33,36.41-27.63,63.21-27.89,26.67-.26,47.92,8.63,63.73,26.67s23.89,44.21,24.22,78.52l.58,60.56Zm-44.84-66.92c-.21-21.68-4-37.7-11.37-48.04-7.37-10.35-18.03-15.45-31.97-15.32-13.94.13-24.47,5.44-31.58,15.93-7.11,10.49-10.57,26.57-10.36,48.25l.71,73.58c.21,21.81,4.03,37.91,11.47,48.32,7.43,10.41,18.12,15.54,32.07,15.41,13.94-.13,24.44-5.44,31.49-15.93,7.05-10.49,10.47-26.69,10.26-48.62l-.71-73.58Z"/>
      </g>
      <path class="cls-5" d="m427.25,244.34c.33,34.43-7.18,60.75-22.52,78.97-15.35,18.22-36.36,27.45-63.03,27.7-26.8.26-48.1-8.57-63.91-26.49-15.81-17.91-23.88-44.08-24.22-78.52l-.58-60.56c-.33-34.31,7.18-60.63,22.52-78.97,15.34-18.33,36.41-27.63,63.21-27.89,26.67-.26,47.92,8.63,63.73,26.67,15.81,18.04,23.89,44.21,24.22,78.52l.58,60.56Zm-44.84-66.92c-.21-21.68-4-37.7-11.37-48.04-7.37-10.35-18.03-15.45-31.97-15.32-13.94.13-24.47,5.44-31.58,15.93-7.11,10.49-10.57,26.57-10.36,48.25l.71,73.58c.21,21.81,4.03,37.91,11.47,48.32,7.43,10.41,18.12,15.54,32.07,15.41,13.94-.13,24.44-5.44,31.49-15.93,7.05-10.49,10.47-26.69,10.26-48.62l-.71-73.58Z"/>
      <path class="cls-5" d="m253.18,189.05c.05.13-5.86,2.48-13.2,5.24-7.34,2.76-13.34,4.89-13.39,4.75-.05-.13,5.86-2.48,13.21-5.24,7.34-2.76,13.34-4.89,13.39-4.75Z"/>
      <path class="cls-5" d="m254.65,212.98c.05.13-5.86,2.48-13.2,5.24-7.35,2.76-13.34,4.89-13.39,4.75-.05-.13,5.86-2.48,13.21-5.24,7.34-2.76,13.34-4.89,13.39-4.75Z"/>
      <path class="cls-5" d="m256.12,236.91c.05.13-5.86,2.48-13.2,5.24-7.35,2.76-13.34,4.89-13.39,4.75-.05-.13,5.86-2.48,13.21-5.24,7.34-2.76,13.34-4.89,13.39-4.75Z"/>
      <path class="cls-5" d="m257.59,260.84c.05.13-5.86,2.48-13.2,5.24-7.35,2.76-13.34,4.89-13.39,4.75-.05-.13,5.86-2.48,13.21-5.24,7.34-2.76,13.34-4.89,13.39-4.75Z"/>
      <path class="cls-5" d="m259.06,284.77s-.31.19-.92.45c-.6.26-1.48.62-2.56,1.05-2.17.87-5.19,2.03-8.53,3.29-3.34,1.26-6.38,2.37-8.59,3.14-1.1.39-2,.7-2.62.9-.62.2-.97.3-.99.26-.01-.03.31-.19.92-.45.6-.26,1.48-.62,2.56-1.05,2.17-.87,5.19-2.03,8.53-3.29,3.34-1.26,6.38-2.37,8.58-3.14,1.1-.39,2-.7,2.62-.9.62-.2.97-.3.99-.26Z"/>
      <path class="cls-5" d="m265.89,306.66c.03.07-1.13.57-3.03,1.33-1.89.76-4.52,1.78-7.44,2.88-2.92,1.1-5.56,2.06-7.49,2.73-1.93.67-3.13,1.06-3.16.99-.03-.07,1.13-.57,3.03-1.33,1.89-.76,4.52-1.78,7.44-2.88,2.91-1.1,5.56-2.06,7.49-2.73,1.93-.67,3.13-1.06,3.16-.99Z"/>
      <path class="cls-5" d="m280.52,326.74c.03.07-1,.52-2.69,1.21-1.68.68-4.03,1.59-6.62,2.57-2.6.98-4.96,1.83-6.68,2.43s-2.79.93-2.82.86c-.03-.07,1-.52,2.69-1.21,1.68-.68,4.03-1.59,6.62-2.57,2.6-.98,4.96-1.83,6.68-2.43,1.72-.6,2.79-.93,2.82-.86Z"/>
      <path class="cls-5" d="m304.83,339.91c.03.07-1,.52-2.69,1.21s-4.03,1.59-6.62,2.57c-2.6.98-4.96,1.83-6.68,2.43-1.72.6-2.79.93-2.82.86s1-.52,2.69-1.21c1.68-.68,4.03-1.59,6.62-2.57,2.6-.98,4.96-1.83,6.68-2.43,1.72-.6,2.79-.93,2.82-.86Z"/>
      <path class="cls-5" d="m378.15,288.85c.06.13-7.53,3.67-16.95,7.91-9.42,4.24-17.11,7.56-17.17,7.43-.06-.13,7.53-3.67,16.95-7.91,9.42-4.24,17.11-7.56,17.17-7.43Z"/>
      <path class="cls-5" d="m383.13,268.34c.06.13-6.21,3.08-13.99,6.58-7.79,3.5-14.15,6.23-14.21,6.1-.06-.13,6.21-3.08,14-6.58,7.79-3.5,14.15-6.23,14.21-6.1Z"/>
      <path class="cls-5" d="m385.42,245.31c.06.13-6.21,3.08-13.99,6.58-7.79,3.5-14.15,6.23-14.21,6.1-.06-.13,6.21-3.08,14-6.58,7.79-3.5,14.15-6.23,14.21-6.1Z"/>
      <path class="cls-5" d="m387.71,222.28c.06.13-6.21,3.08-13.99,6.58-7.79,3.5-14.15,6.23-14.21,6.1-.06-.13,6.21-3.08,14-6.58,7.79-3.5,14.15-6.23,14.21-6.1Z"/>
      <path class="cls-5" d="m390.01,199.24c.06.13-6.21,3.08-13.99,6.58-7.79,3.5-14.15,6.23-14.21,6.1-.06-.13,6.21-3.08,14-6.58,7.79-3.5,14.15-6.23,14.21-6.1Z"/>
      <path class="cls-5" d="m385.42,178.73c.06.13-6.21,3.08-13.99,6.58-7.79,3.5-14.15,6.23-14.21,6.1-.06-.13,6.21-3.08,14-6.58,7.79-3.5,14.15-6.23,14.21-6.1Z"/>
      <path class="cls-5" d="m385.42,156.65c.06.13-6.21,3.08-13.99,6.58-7.79,3.5-14.15,6.23-14.21,6.1-.06-.13,6.21-3.08,14-6.58,7.79-3.5,14.15-6.23,14.21-6.1Z"/>
      <path class="cls-5" d="m383.13,135.86c.06.13-6.21,3.08-13.99,6.58-7.79,3.5-14.15,6.23-14.21,6.1-.06-.13,6.21-3.08,14-6.58,7.79-3.5,14.15-6.23,14.21-6.1Z"/>
      <path class="cls-5" d="m363.38,121.38c.06.13-3.73,1.96-8.47,4.09-4.74,2.13-8.63,3.75-8.68,3.62-.06-.13,3.73-1.96,8.47-4.09,4.74-2.13,8.62-3.75,8.68-3.62Z"/>
      <path class="cls-5" d="m352.82,112.5c.06.13-3.73,1.96-8.47,4.09-4.74,2.13-8.63,3.75-8.68,3.62-.06-.13,3.73-1.96,8.47-4.09,4.74-2.13,8.62-3.75,8.68-3.62Z"/>
      <path class="cls-5" d="m254.31,160.04c.05.13-5.86,2.48-13.2,5.24-7.35,2.76-13.34,4.89-13.39,4.75s5.86-2.48,13.21-5.24c7.34-2.76,13.34-4.89,13.39-4.75Z"/>
      <path class="cls-5" d="m261.67,130.2c.05.13-6.36,2.67-14.32,5.66-7.96,2.99-14.45,5.31-14.5,5.17-.05-.13,6.36-2.67,14.32-5.66,7.96-2.99,14.45-5.31,14.5-5.17Z"/>
      <path class="cls-5" d="m280.9,100.66c.05.13-8.08,3.31-18.16,7.1-10.08,3.79-18.29,6.75-18.34,6.61-.05-.13,8.08-3.31,18.16-7.1,10.08-3.79,18.29-6.75,18.34-6.61Z"/>
      <path class="cls-1" d="m422.94,289.18s-.15-.04-.42-.14c-.29-.11-.69-.27-1.2-.47-.53-.2-1.22-.34-2.02-.57-.82-.11-1.76-.34-2.83-.34-4.27-.28-10.67,1.28-16.86,5.91-3.14,2.24-6.07,5.31-8.93,8.83-2.87,3.51-5.68,7.48-8.87,11.49-3.19,3.99-6.86,8.04-11.52,11.17-4.63,3.14-10.1,5.41-15.94,6.46-5.85,1.08-11.76.77-17.19-.57-5.45-1.31-10.42-3.45-15.06-5.59-4.64-2.15-8.98-4.35-13.14-6.15-4.15-1.84-8.17-3.17-11.92-4.06-3.76-.86-7.24-1.23-10.3-1.19-3.06.03-5.67.5-7.75,1.05-2.06.63-3.61,1.28-4.61,1.81-.49.26-.86.46-1.14.6-.26.13-.39.2-.4.19,0,0,.12-.09.37-.24.27-.16.65-.37,1.12-.65.99-.56,2.54-1.25,4.6-1.91,2.09-.59,4.72-1.09,7.8-1.15,3.08-.07,6.6.28,10.39,1.12,3.78.87,7.84,2.19,12.01,4.02,4.19,1.79,8.53,3.98,13.17,6.11,4.64,2.12,9.58,4.24,14.98,5.53,5.37,1.32,11.2,1.62,16.98.56,5.77-1.04,11.17-3.28,15.75-6.37,4.61-3.08,8.25-7.08,11.44-11.05,3.19-3.98,6.01-7.94,8.91-11.46,2.89-3.52,5.87-6.61,9.05-8.85,6.27-4.64,12.77-6.16,17.08-5.82,1.09.02,2.03.26,2.86.39.8.24,1.49.41,2.02.62.51.22.9.39,1.19.52.27.12.4.18.4.19Z"/>
      <path class="cls-1" d="m429.25,222.43c0,.06-.71.15-1.94.56-1.23.42-2.94,1.23-4.83,2.58-1.91,1.33-3.98,3.19-6.41,5.11-2.45,1.91-5.35,3.75-8.59,5.29-6.48,3.12-12.99,4.33-17.66,4.56-1.17.1-2.23.06-3.16.08-.93-.04-1.73-.05-2.39-.1-.6-.06-1.1-.11-1.5-.15-.34-.04-.52-.07-.52-.09,0-.02.18-.02.53-.02.4.01.9.03,1.5.05.68,0,1.47,0,2.38.02.92-.05,1.98-.04,3.14-.16,4.63-.32,11.05-1.58,17.47-4.67,3.2-1.52,6.08-3.33,8.52-5.2,2.43-1.89,4.54-3.73,6.5-5.04,1.94-1.33,3.71-2.11,4.98-2.47.64-.17,1.13-.28,1.48-.32.34-.05.52-.06.53-.05Z"/>
      <path class="cls-1" d="m298.62,245.6s-.19,0-.55-.08c-.35-.08-.89-.16-1.55-.35-1.33-.39-3.22-1.09-5.36-2.35-2.14-1.25-4.5-3.03-7-5.11-2.51-2.07-5.19-4.45-8.26-6.57-3.08-2.11-6.34-3.62-9.49-4.35-3.14-.78-6.07-.95-8.51-.81-2.44.12-4.4.53-5.72.87-1.33.34-2.05.6-2.06.55,0-.02.17-.09.51-.23.34-.13.84-.33,1.5-.52,1.32-.4,3.28-.87,5.75-1.05,2.47-.18,5.45-.06,8.65.71,3.21.72,6.55,2.25,9.67,4.39,3.11,2.15,5.79,4.55,8.28,6.63,2.48,2.1,4.79,3.9,6.88,5.17,2.09,1.28,3.93,2.03,5.23,2.47,1.31.39,2.05.57,2.04.62Z"/>
      <path class="cls-1" d="m298.8,151.07s-.58.25-1.67.61c-.54.19-1.21.4-2,.59-.79.2-1.68.46-2.68.64-1,.21-2.1.43-3.3.58-1.19.2-2.47.29-3.82.41-2.7.17-5.69.17-8.8-.11-3.11-.31-6.05-.87-8.67-1.54-1.3-.37-2.55-.7-3.68-1.12-1.15-.37-2.19-.79-3.13-1.18-.96-.36-1.78-.79-2.52-1.13-.74-.34-1.36-.67-1.85-.95-1-.56-1.54-.88-1.52-.91.02-.03.59.23,1.62.73.51.26,1.13.56,1.88.87.74.32,1.57.72,2.53,1.06.95.37,1.99.77,3.13,1.11,1.13.4,2.37.71,3.66,1.06,2.61.64,5.52,1.18,8.6,1.48,3.09.28,6.04.28,8.72.15,1.34-.11,2.61-.18,3.79-.36,1.19-.13,2.28-.33,3.28-.51,1.01-.16,1.89-.39,2.68-.57.79-.16,1.46-.35,2.01-.5,1.1-.3,1.71-.45,1.72-.42Z"/>
      <path class="cls-1" d="m423.57,150.82s-.16-.06-.43-.2c-.32-.18-.7-.4-1.16-.67-.49-.3-1.11-.66-1.86-1.01-.74-.36-1.56-.83-2.53-1.19-.48-.2-.98-.41-1.5-.62-.52-.21-1.09-.37-1.67-.57-1.14-.42-2.42-.71-3.74-1.06-2.68-.58-5.67-.99-8.83-1.04-3.16,0-6.16.35-8.85.88-1.33.32-2.61.59-3.76.99-.58.19-1.15.34-1.68.54-.52.21-1.03.41-1.51.6-.98.35-1.8.8-2.55,1.15-.75.34-1.37.68-1.87.98-.46.26-.85.47-1.17.65-.27.14-.42.21-.43.2,0-.01.12-.11.37-.29.31-.2.68-.44,1.13-.74.49-.32,1.1-.7,1.84-1.07.74-.37,1.56-.85,2.54-1.23.49-.2.99-.41,1.52-.63.53-.22,1.1-.38,1.69-.58,1.16-.43,2.45-.71,3.79-1.05,2.71-.56,5.75-.94,8.95-.93,3.2.05,6.23.48,8.93,1.09,1.34.36,2.62.67,3.77,1.11.58.21,1.15.38,1.67.61.52.23,1.02.45,1.5.66.97.39,1.79.89,2.52,1.27.74.38,1.34.76,1.82,1.1.44.3.81.55,1.11.76.25.18.38.28.37.29Z"/>
      <path class="cls-1" d="m362.44,82.9s-.24.16-.72.43c-.53.29-1.23.67-2.12,1.15-1.85.99-4.53,2.4-7.89,4.07-6.7,3.31-16.12,7.84-27.26,10.66-5.57,1.37-11.02,2.11-15.99,2.22-4.97.11-9.45-.34-13.13-1.13-3.68-.78-6.57-1.77-8.5-2.6-.98-.38-1.69-.78-2.2-1-.5-.24-.75-.38-.74-.39,0-.02.28.09.79.3.52.2,1.24.57,2.23.91,1.94.77,4.83,1.7,8.49,2.42,3.66.74,8.11,1.15,13.05,1.01,4.93-.14,10.34-.88,15.87-2.25,11.07-2.8,20.48-7.26,27.22-10.49,3.32-1.64,6.03-2.97,7.95-3.92.91-.44,1.63-.8,2.17-1.06.5-.24.76-.36.77-.34Z"/>
    </g>
    <g>
      <path class="cls-5" d="m161.69,257.13l33.43,1.46-1.55,35.43-33.43-1.46-2.57,58.87-43.97-1.92,2.57-58.87-113.56-4.96.09-26.98L123.7,84.9l45.42,1.98-7.43,170.25Zm-115.01-5.02l71.04,3.1,4.69-107.38-1.07-.41-3.97,7.65-70.68,97.04Z"/>
      <g class="cls-7">
        <path d="m161.69,257.13l33.43,1.46-1.55,35.43-33.43-1.46-2.57,58.87-43.97-1.92,2.57-58.87-113.56-4.96.09-26.98L123.7,84.9l45.42,1.98-7.43,170.25Zm-115.01-5.02l71.04,3.1,4.69-107.38-1.07-.41-3.97,7.65-70.68,97.04Z"/>
      </g>
      <path class="cls-5" d="m189.65,258.35l33.43,1.46-1.55,35.43-33.43-1.46-2.57,58.87-43.97-1.92,2.57-58.87-113.56-4.96.09-26.98,121-173.8,45.42,1.98-7.43,170.25Zm-115.01-5.02l71.04,3.1,4.69-107.38-1.07-.41-3.97,7.65-70.68,97.04Z"/>
      <g>
        <path class="cls-5" d="m31.22,265.05s-.37.25-1.08.61c-.71.36-1.75.86-3.04,1.47-2.58,1.21-6.17,2.82-10.17,4.51-4,1.69-7.66,3.14-10.33,4.15-1.33.5-2.41.9-3.17,1.16-.75.26-1.18.39-1.19.35-.01-.03.38-.23,1.12-.54.83-.35,1.87-.79,3.11-1.31,2.73-1.14,6.3-2.63,10.26-4.29,3.94-1.68,7.5-3.21,10.22-4.37,1.23-.52,2.27-.96,3.1-1.31.74-.3,1.15-.45,1.17-.42Z"/>
        <path class="cls-5" d="m47.5,235.11s-.52.31-1.51.8c-.99.48-2.42,1.15-4.2,1.97-3.56,1.63-8.52,3.8-14.03,6.13-5.51,2.33-10.52,4.37-14.17,5.79-1.82.71-3.31,1.27-4.34,1.64-1.03.37-1.61.56-1.62.52-.01-.03.54-.29,1.55-.71,1.09-.46,2.53-1.06,4.27-1.8,3.69-1.55,8.63-3.63,14.1-5.93,5.46-2.32,10.4-4.42,14.08-5.98,1.74-.74,3.18-1.35,4.27-1.81,1.01-.42,1.57-.64,1.59-.61Z"/>
        <path class="cls-5" d="m67.37,208.41s-.55.32-1.58.8c-1.03.48-2.53,1.16-4.39,1.97-3.72,1.63-8.9,3.8-14.64,6.13-5.75,2.33-10.98,4.37-14.78,5.79-1.9.71-3.45,1.27-4.52,1.64-1.07.37-1.67.56-1.69.52-.01-.03.56-.29,1.62-.71,1.13-.46,2.64-1.06,4.46-1.8,3.84-1.55,9.01-3.63,14.72-5.93,5.7-2.32,10.86-4.42,14.69-5.98,1.82-.74,3.32-1.35,4.45-1.81,1.05-.43,1.64-.64,1.66-.61Z"/>
        <path class="cls-5" d="m146.96,239.25s-.37.24-1.09.59c-.71.35-1.75.83-3.05,1.41-2.58,1.17-6.18,2.72-10.19,4.35-4.01,1.62-7.68,3.01-10.34,3.97-1.33.48-2.42.86-3.17,1.1-.75.25-1.18.37-1.19.33s.39-.22,1.12-.52c.83-.34,1.88-.76,3.11-1.26,2.74-1.09,6.32-2.53,10.28-4.11,3.95-1.62,7.52-3.08,10.24-4.2,1.24-.5,2.28-.92,3.11-1.26.74-.29,1.15-.43,1.17-.4Z"/>
        <path class="cls-5" d="m143.72,294.18s-.36.24-1.05.59c-.69.35-1.7.83-2.95,1.41-2.5,1.17-5.99,2.72-9.88,4.34-3.89,1.62-7.44,3.01-10.03,3.97-1.29.48-2.35.86-3.08,1.11-.73.25-1.14.37-1.16.34-.01-.03.37-.22,1.08-.52.81-.34,1.82-.76,3.02-1.26,2.66-1.1,6.13-2.53,9.97-4.11,3.82-1.62,7.28-3.08,9.93-4.2,1.19-.5,2.2-.92,3.02-1.26.72-.29,1.12-.43,1.13-.4Z"/>
        <path class="cls-5" d="m143.26,313.44s-.36.24-1.05.59c-.69.35-1.7.83-2.95,1.41-2.5,1.17-5.99,2.72-9.88,4.34-3.89,1.62-7.44,3.01-10.03,3.97-1.29.48-2.35.86-3.08,1.11-.73.25-1.14.37-1.16.34s.37-.22,1.08-.52c.81-.34,1.82-.76,3.02-1.26,2.66-1.1,6.13-2.53,9.97-4.11,3.82-1.62,7.28-3.08,9.93-4.2,1.19-.5,2.2-.92,3.02-1.26.72-.29,1.12-.43,1.13-.4Z"/>
        <path class="cls-5" d="m142.8,332.69s-.36.24-1.05.59c-.69.35-1.7.83-2.95,1.41-2.5,1.17-5.99,2.72-9.88,4.34-3.89,1.62-7.44,3.01-10.03,3.97-1.29.48-2.35.86-3.08,1.11-.73.25-1.14.37-1.16.34-.01-.03.37-.22,1.08-.52.81-.34,1.82-.76,3.02-1.26,2.66-1.1,6.13-2.53,9.97-4.11,3.82-1.62,7.28-3.08,9.93-4.2,1.19-.5,2.2-.92,3.02-1.26.72-.29,1.12-.43,1.13-.4Z"/>
        <path class="cls-5" d="m147.48,218.9s-.37.24-1.09.59c-.71.35-1.75.83-3.05,1.41-2.58,1.17-6.18,2.72-10.19,4.35-4.01,1.62-7.68,3.01-10.34,3.97-1.33.48-2.42.86-3.17,1.1-.75.25-1.18.37-1.19.33s.39-.22,1.12-.52c.83-.34,1.88-.76,3.11-1.26,2.74-1.09,6.32-2.53,10.28-4.11,3.95-1.62,7.52-3.08,10.24-4.2,1.24-.5,2.28-.92,3.11-1.26.74-.29,1.15-.43,1.17-.4Z"/>
        <path class="cls-5" d="m148,198.56s-.37.24-1.09.59c-.71.35-1.75.83-3.05,1.41-2.58,1.17-6.18,2.72-10.19,4.35-4.01,1.62-7.68,3.01-10.34,3.97-1.33.48-2.42.86-3.17,1.1-.75.25-1.18.37-1.19.33-.01-.03.39-.22,1.12-.52.83-.34,1.88-.76,3.11-1.26,2.74-1.09,6.32-2.53,10.28-4.11,3.95-1.62,7.52-3.08,10.24-4.2,1.24-.5,2.28-.92,3.11-1.26.74-.29,1.15-.43,1.17-.4Z"/>
        <path class="cls-5" d="m148.52,178.22s-.35.23-1.03.56c-.68.33-1.67.79-2.9,1.35-2.46,1.11-5.88,2.6-9.7,4.15-3.82,1.55-7.32,2.86-9.86,3.77-1.27.46-2.3.81-3.02,1.05-.72.23-1.12.35-1.13.31-.01-.03.37-.21,1.06-.5.8-.32,1.79-.73,2.96-1.2,2.62-1.04,6.02-2.41,9.79-3.91,3.75-1.54,7.15-2.94,9.75-4.01,1.17-.47,2.16-.88,2.96-1.2.7-.27,1.1-.41,1.11-.38Z"/>
        <path class="cls-5" d="m150.82,159.21c.05.13-2.19,1.09-5.01,2.14-2.82,1.04-5.14,1.78-5.19,1.65-.05-.13,2.19-1.09,5.01-2.14,2.82-1.04,5.14-1.78,5.19-1.65Z"/>
        <path class="cls-5" d="m87.2,180.72s-.55.32-1.58.8c-1.03.48-2.53,1.16-4.39,1.97-3.72,1.63-8.9,3.8-14.64,6.13-5.75,2.33-10.98,4.37-14.78,5.79-1.9.71-3.45,1.27-4.52,1.64-1.07.37-1.67.56-1.69.52-.01-.03.56-.29,1.62-.71,1.13-.46,2.64-1.06,4.46-1.8,3.84-1.55,9.01-3.63,14.72-5.93,5.7-2.32,10.86-4.42,14.69-5.98,1.82-.74,3.32-1.35,4.45-1.81,1.05-.43,1.64-.64,1.66-.61Z"/>
        <path class="cls-5" d="m107.04,153.04s-.55.32-1.58.8c-1.03.48-2.53,1.16-4.39,1.97-3.72,1.63-8.9,3.8-14.64,6.13-5.75,2.33-10.98,4.37-14.78,5.79-1.9.71-3.45,1.27-4.52,1.64-1.07.37-1.67.56-1.69.52-.01-.03.56-.29,1.62-.71,1.13-.46,2.64-1.06,4.46-1.8,3.84-1.55,9.01-3.63,14.72-5.93,5.7-2.32,10.86-4.42,14.69-5.98,1.82-.74,3.32-1.35,4.45-1.81,1.05-.43,1.64-.64,1.66-.61Z"/>
        <path class="cls-5" d="m125.37,125.35s-.55.32-1.58.8c-1.03.48-2.53,1.16-4.39,1.97-3.72,1.63-8.9,3.8-14.64,6.13-5.75,2.33-10.98,4.37-14.78,5.79-1.9.71-3.45,1.27-4.52,1.64-1.07.37-1.67.56-1.69.52s.56-.29,1.62-.71c1.13-.46,2.64-1.06,4.46-1.8,3.84-1.55,9.01-3.63,14.72-5.93,5.7-2.32,10.86-4.42,14.69-5.98,1.82-.74,3.32-1.35,4.45-1.81,1.05-.43,1.64-.64,1.66-.61Z"/>
        <path class="cls-5" d="m144.45,98.73s-.55.32-1.58.8c-1.03.48-2.53,1.16-4.39,1.97-3.72,1.63-8.9,3.8-14.64,6.13-5.75,2.33-10.98,4.37-14.78,5.79-1.9.71-3.45,1.27-4.52,1.64-1.07.37-1.67.56-1.69.52s.56-.29,1.62-.71c1.13-.46,2.64-1.06,4.46-1.8,3.84-1.55,9.01-3.63,14.72-5.93,5.7-2.32,10.86-4.42,14.69-5.98,1.82-.74,3.32-1.35,4.45-1.81,1.05-.43,1.64-.64,1.66-.61Z"/>
        <path class="cls-1" d="m195.07,139.41s-.19.24-.58.66c-.39.42-.97,1.04-1.81,1.75-1.63,1.45-4.2,3.37-7.77,5.02-3.56,1.64-8.15,2.93-13.36,3.05-2.6.05-5.34-.23-8.09-.91-2.76-.65-5.48-1.77-8.18-3.05-5.38-2.62-10.16-5.71-14.83-7.86-4.64-2.2-9.22-3.29-13.09-3.42-3.89-.14-6.98.74-8.93,1.67-.97.48-1.71.9-2.17,1.24-.47.32-.73.48-.74.47-.01-.01.22-.2.68-.55.44-.37,1.17-.82,2.14-1.34,1.95-1,5.09-1.95,9.03-1.86,3.93.09,8.58,1.15,13.29,3.35,4.72,2.15,9.52,5.23,14.85,7.83,2.67,1.27,5.36,2.38,8.07,3.02,2.7.67,5.39.96,7.96.92,5.13-.09,9.68-1.32,13.21-2.9,3.55-1.58,6.13-3.44,7.79-4.83.85-.68,1.45-1.28,1.87-1.67.42-.39.65-.59.66-.58Z"/>
        <path class="cls-1" d="m181.15,89.96s-.44.29-1.27.74c-.83.45-2.07,1.04-3.63,1.7-1.56.67-3.45,1.35-5.6,2-2.15.63-4.55,1.2-7.1,1.63-2.55.41-5.01.62-7.25.71-2.24.06-4.26.02-5.94-.12-1.69-.13-3.05-.29-3.98-.46-.93-.16-1.44-.26-1.44-.3,0-.04.53,0,1.46.1.94.11,2.3.21,3.97.29,1.68.09,3.68.1,5.9,0,2.22-.12,4.65-.34,7.18-.75,2.53-.42,4.91-.98,7.05-1.58,2.13-.62,4.03-1.26,5.59-1.88,1.57-.61,2.82-1.14,3.68-1.54.86-.39,1.34-.59,1.36-.56Z"/>
        <path class="cls-1" d="m110.15,201.02s-.34-.34-.9-1.01c-.62-.74-1.42-1.69-2.37-2.81-2.02-2.35-4.91-5.53-8.37-8.75-1.73-1.61-3.49-3.01-5.25-4.04-1.75-1.03-3.49-1.65-5-1.94-3.04-.6-4.95.09-4.96-.03,0-.02.11-.06.33-.13.22-.07.55-.15.98-.23.86-.15,2.15-.23,3.71.03,1.55.25,3.36.85,5.17,1.89,1.81,1.02,3.62,2.45,5.36,4.07,3.48,3.25,6.34,6.48,8.3,8.9.98,1.21,1.74,2.22,2.25,2.93.51.71.77,1.11.74,1.14Z"/>
        <path class="cls-1" d="m189.92,231.24s-.12.12-.39.3c-.27.18-.65.46-1.19.76-1.05.64-2.63,1.46-4.69,2.23-4.07,1.56-10.29,2.69-16.93,1.34-6.63-1.36-11.91-4.85-15.04-7.88-1.59-1.52-2.72-2.89-3.44-3.89-.37-.49-.61-.9-.79-1.17-.17-.27-.26-.42-.24-.43.04-.03.43.52,1.19,1.47.76.95,1.92,2.28,3.52,3.75,3.16,2.93,8.38,6.31,14.89,7.64,6.51,1.33,12.64.28,16.7-1.17,2.05-.72,3.64-1.48,4.71-2.06,1.07-.58,1.65-.92,1.68-.89Z"/>
        <path class="cls-1" d="m219.05,294.55s-.11-.15-.29-.46c-.19-.33-.45-.79-.79-1.38-.64-1.25-1.81-2.96-3.42-5.07-.43-.51-.88-1.04-1.36-1.61-.24-.28-.48-.57-.73-.86-.28-.27-.56-.55-.85-.83-.58-.57-1.18-1.16-1.8-1.77-.67-.56-1.38-1.14-2.1-1.75-2.95-2.34-6.6-4.68-10.98-6.53-4.37-1.83-9.47-3.2-15.05-3.49-5.57-.32-11.58.54-17.43,2.8-5.85,2.3-11.5,5.78-17.48,9.14-2.99,1.68-6.09,3.32-9.39,4.65-3.29,1.34-6.8,2.37-10.45,2.74-3.65.42-7.3.08-10.79-.65-3.49-.74-6.8-1.97-9.93-3.39-6.28-2.86-11.78-6.63-16.91-10.28-5.14-3.65-9.98-7.17-14.81-9.99-4.82-2.81-9.61-4.97-14.23-6.08-4.62-1.1-8.97-1.28-12.71-.84-3.75.41-6.87,1.48-9.24,2.67-2.4,1.17-3.95,2.56-5.03,3.45-.48.48-.86.86-1.12,1.13-.26.25-.4.37-.4.37,0,0,.11-.14.36-.41.26-.28.62-.67,1.09-1.17,1.06-.92,2.6-2.35,5.01-3.55,2.37-1.23,5.51-2.34,9.29-2.78,3.77-.48,8.16-.32,12.83.77,4.67,1.1,9.51,3.25,14.36,6.06,4.87,2.82,9.73,6.34,14.87,9.97,5.14,3.63,10.62,7.38,16.85,10.21,3.11,1.4,6.38,2.63,9.83,3.35,3.44.72,7.03,1.05,10.62.64,3.59-.37,7.05-1.38,10.31-2.71,3.27-1.32,6.35-2.95,9.34-4.62,5.97-3.34,11.64-6.82,17.55-9.14,1.49-.55,2.95-1.09,4.46-1.44.75-.19,1.48-.42,2.23-.57.75-.12,1.5-.25,2.24-.37,2.96-.49,5.89-.52,8.7-.4,5.63.32,10.77,1.72,15.16,3.59,4.4,1.88,8.06,4.27,11.02,6.64.73.61,1.43,1.2,2.1,1.77.62.62,1.22,1.23,1.8,1.8.29.29.57.57.84.84.25.3.49.59.73.88.47.57.92,1.11,1.35,1.63,1.59,2.14,2.73,3.88,3.35,5.15.32.61.57,1.07.75,1.41.17.32.24.49.24.49Z"/>
        <path class="cls-1" d="m188.83,336.32s-.17.06-.51.13c-.4.08-.88.17-1.48.28-.64.13-1.43.26-2.35.34-.92.09-1.97.25-3.14.27-.59.03-1.2.05-1.83.08-.64.02-1.3-.01-1.99-.02-1.38.01-2.84-.13-4.38-.25-3.07-.34-6.43-.94-9.87-1.92-3.43-1.02-6.58-2.32-9.36-3.68-1.37-.73-2.68-1.39-3.83-2.14-.58-.37-1.16-.69-1.69-1.05-.52-.36-1.02-.72-1.5-1.05-.97-.65-1.78-1.34-2.5-1.92-.74-.57-1.33-1.1-1.8-1.55-.44-.41-.8-.75-1.09-1.03-.25-.24-.37-.37-.36-.39s.16.09.43.31c.31.26.69.57,1.16.96.49.43,1.1.94,1.85,1.48.74.55,1.55,1.22,2.53,1.84.48.33.99.66,1.51,1.02.53.35,1.11.67,1.69,1.02,1.16.73,2.46,1.37,3.82,2.08,2.76,1.33,5.89,2.61,9.29,3.61,3.4.97,6.73,1.58,9.77,1.94,1.53.13,2.98.29,4.34.3.68.01,1.34.06,1.97.05.63-.02,1.24-.03,1.82-.05,1.16,0,2.21-.13,3.13-.19.92-.06,1.71-.16,2.35-.25.6-.07,1.09-.14,1.49-.19.34-.04.52-.05.53-.03Z"/>
      </g>
    </g>
    <g>
      <path class="cls-5" d="m595.95,257.54l33.3-3.26,3.45,35.29-33.3,3.26,5.74,58.64-43.8,4.28-5.74-58.64-113.13,11.06-3.71-26.72,95.35-189.09,45.25-4.43,16.59,169.6Zm-114.57,11.21l70.77-6.92-10.46-106.97-1.12-.25-2.86,8.14-56.33,106.01Z"/>
      <g class="cls-7">
        <path d="m595.95,257.54l33.3-3.26,3.45,35.29-33.3,3.26,5.74,58.64-43.8,4.28-5.74-58.64-113.13,11.06-3.71-26.72,95.35-189.09,45.25-4.43,16.59,169.6Zm-114.57,11.21l70.77-6.92-10.46-106.97-1.12-.25-2.86,8.14-56.33,106.01Z"/>
      </g>
      <path class="cls-5" d="m623.8,254.82l33.3-3.26,3.45,35.29-33.3,3.26,5.74,58.64-43.8,4.28-5.74-58.64-113.13,11.06-3.71-26.72,95.35-189.09,45.25-4.42,16.59,169.6Zm-114.57,11.21l70.77-6.92-10.46-106.97-1.12-.26-2.86,8.14-56.33,106.01Z"/>
      <g>
        <path class="cls-5" d="m467.89,283.74s-.33.3-.99.75c-.65.46-1.61,1.1-2.8,1.88-2.38,1.56-5.71,3.66-9.43,5.9-3.73,2.24-7.14,4.19-9.64,5.56-1.25.69-2.26,1.23-2.97,1.59-.71.36-1.11.55-1.13.52-.02-.03.35-.28,1.03-.69.77-.46,1.74-1.05,2.89-1.73,2.54-1.51,5.87-3.49,9.55-5.69,3.66-2.22,6.98-4.23,9.51-5.76,1.15-.69,2.11-1.27,2.89-1.74.69-.4,1.08-.61,1.1-.58Z"/>
        <path class="cls-5" d="m479.79,251.8s-.47.38-1.38,1c-.91.61-2.23,1.48-3.88,2.54-3.3,2.11-7.9,4.96-13.02,8.04-5.13,3.08-9.8,5.8-13.21,7.73-1.71.96-3.1,1.73-4.06,2.24-.97.51-1.51.78-1.53.75-.02-.03.49-.36,1.43-.92,1.01-.61,2.36-1.41,3.98-2.38,3.43-2.05,8.04-4.81,13.13-7.85,5.08-3.06,9.67-5.84,13.1-7.9,1.62-.98,2.96-1.78,3.97-2.4.94-.56,1.47-.86,1.49-.83Z"/>
        <path class="cls-5" d="m495.71,222.57s-.5.39-1.45,1.01c-.95.62-2.34,1.5-4.07,2.57-3.46,2.13-8.28,5.01-13.63,8.13-5.36,3.11-10.25,5.87-13.82,7.81-1.78.97-3.24,1.74-4.25,2.26-1.01.52-1.58.79-1.6.76-.02-.03.52-.36,1.5-.93,1.06-.61,2.46-1.42,4.16-2.41,3.59-2.07,8.41-4.86,13.74-7.94,5.32-3.1,10.13-5.9,13.71-7.99,1.7-.99,3.1-1.81,4.15-2.42.98-.57,1.54-.87,1.55-.84Z"/>
        <path class="cls-5" d="m578.85,241.91s-.34.29-.99.73c-.66.44-1.62,1.07-2.82,1.83-2.4,1.52-5.74,3.56-9.48,5.74-3.74,2.17-7.18,4.06-9.68,5.39-1.25.66-2.27,1.19-2.98,1.54-.71.35-1.11.53-1.13.5-.02-.03.35-.27,1.03-.68.78-.45,1.75-1.01,2.9-1.68,2.55-1.47,5.9-3.39,9.6-5.52,3.68-2.16,7.01-4.11,9.55-5.6,1.15-.67,2.12-1.23,2.9-1.69.69-.39,1.08-.59,1.1-.56Z"/>
        <path class="cls-5" d="m583.37,296.76s-.32.29-.96.73c-.63.44-1.56,1.06-2.72,1.81-2.31,1.51-5.55,3.53-9.17,5.69-3.62,2.16-6.95,4.03-9.37,5.35-1.21.66-2.2,1.18-2.89,1.53-.69.35-1.08.53-1.1.49-.02-.03.34-.27,1-.67.76-.45,1.7-1.01,2.81-1.67,2.48-1.46,5.71-3.36,9.29-5.47,3.56-2.14,6.77-4.07,9.24-5.55,1.11-.66,2.05-1.22,2.81-1.67.67-.39,1.05-.59,1.07-.56Z"/>
        <path class="cls-5" d="m585.62,315.89s-.32.29-.96.73c-.63.44-1.56,1.06-2.72,1.81-2.31,1.51-5.55,3.53-9.17,5.69-3.62,2.16-6.95,4.03-9.37,5.35-1.21.66-2.2,1.18-2.89,1.53-.69.35-1.08.53-1.1.49s.34-.27,1-.67c.76-.45,1.7-1.01,2.81-1.67,2.48-1.46,5.71-3.36,9.29-5.47,3.56-2.14,6.77-4.07,9.24-5.55,1.11-.66,2.05-1.22,2.81-1.67.67-.39,1.05-.59,1.07-.56Z"/>
        <path class="cls-5" d="m587.87,335.01s-.32.29-.96.73c-.63.44-1.56,1.06-2.72,1.81-2.31,1.51-5.55,3.53-9.17,5.69-3.62,2.16-6.95,4.03-9.37,5.35-1.21.66-2.2,1.18-2.89,1.53-.69.35-1.08.53-1.1.49-.02-.03.34-.27,1-.67.76-.45,1.7-1.01,2.81-1.67,2.48-1.46,5.71-3.36,9.29-5.47,3.56-2.14,6.77-4.07,9.24-5.55,1.11-.66,2.05-1.22,2.81-1.67.67-.39,1.05-.59,1.07-.56Z"/>
        <path class="cls-5" d="m576.5,221.7s-.34.29-.99.73c-.66.44-1.62,1.07-2.82,1.83-2.4,1.52-5.74,3.56-9.48,5.74-3.74,2.17-7.18,4.06-9.68,5.39-1.25.66-2.27,1.19-2.98,1.54-.71.35-1.11.53-1.13.5s.35-.27,1.03-.68c.78-.45,1.75-1.02,2.9-1.68,2.55-1.47,5.9-3.39,9.6-5.52,3.68-2.16,7.01-4.11,9.55-5.6,1.15-.67,2.12-1.23,2.9-1.69.69-.39,1.08-.59,1.1-.56Z"/>
        <path class="cls-5" d="m574.16,201.48s-.34.29-.99.73c-.66.44-1.62,1.07-2.82,1.83-2.4,1.52-5.74,3.56-9.48,5.74-3.74,2.17-7.18,4.06-9.68,5.39-1.25.66-2.27,1.19-2.98,1.54-.71.35-1.11.53-1.13.5-.02-.03.35-.27,1.03-.68.78-.45,1.75-1.02,2.9-1.68,2.55-1.47,5.9-3.39,9.6-5.52,3.68-2.16,7.01-4.11,9.55-5.6,1.15-.67,2.12-1.23,2.9-1.69.69-.39,1.08-.59,1.1-.56Z"/>
        <path class="cls-5" d="m571.81,181.27s-.32.28-.94.7c-.63.42-1.54,1.02-2.68,1.75-2.28,1.45-5.46,3.4-9.02,5.47-3.57,2.07-6.84,3.86-9.23,5.12-1.19.63-2.17,1.13-2.85,1.46-.68.33-1.06.5-1.08.47-.02-.03.33-.26.98-.65.75-.43,1.67-.97,2.77-1.61,2.44-1.4,5.63-3.23,9.15-5.25,3.5-2.05,6.66-3.91,9.09-5.34,1.09-.63,2.02-1.17,2.77-1.61.66-.37,1.03-.56,1.05-.53Z"/>
        <path class="cls-5" d="m571.41,162.13c.07.13-2.02,1.39-4.66,2.82-2.64,1.43-4.84,2.49-4.91,2.36-.07-.13,2.02-1.39,4.66-2.82,2.64-1.43,4.84-2.49,4.91-2.36Z"/>
        <path class="cls-5" d="m511.45,192.37s-.5.39-1.45,1.01c-.95.62-2.34,1.5-4.07,2.57-3.46,2.13-8.28,5.01-13.63,8.13-5.36,3.11-10.25,5.87-13.82,7.81-1.78.97-3.24,1.74-4.25,2.26-1.01.52-1.58.79-1.6.76-.02-.03.52-.36,1.5-.93,1.06-.61,2.46-1.42,4.16-2.41,3.59-2.07,8.41-4.86,13.74-7.94,5.32-3.1,10.13-5.9,13.71-7.99,1.7-.99,3.1-1.81,4.15-2.42.98-.57,1.54-.87,1.55-.84Z"/>
        <path class="cls-5" d="m527.2,162.17s-.5.39-1.45,1.01c-.95.62-2.34,1.5-4.07,2.57-3.46,2.13-8.28,5.01-13.63,8.13-5.36,3.11-10.25,5.87-13.82,7.81-1.78.97-3.24,1.74-4.25,2.26-1.01.52-1.58.79-1.6.76-.02-.03.52-.36,1.5-.93,1.06-.61,2.46-1.42,4.16-2.41,3.59-2.07,8.41-4.86,13.74-7.94,5.32-3.1,10.13-5.9,13.71-7.99,1.7-.99,3.1-1.81,4.15-2.42.98-.57,1.54-.87,1.55-.84Z"/>
        <path class="cls-5" d="m541.46,132.18s-.5.39-1.45,1.01c-.95.62-2.34,1.5-4.07,2.57-3.46,2.13-8.28,5.01-13.63,8.13-5.36,3.11-10.25,5.87-13.82,7.81-1.78.97-3.24,1.74-4.25,2.26-1.01.52-1.58.79-1.6.76-.02-.03.52-.36,1.5-.93,1.06-.61,2.46-1.42,4.16-2.41,3.59-2.07,8.41-4.86,13.74-7.94,5.32-3.1,10.13-5.9,13.71-7.99,1.7-.99,3.1-1.81,4.15-2.42.98-.57,1.54-.87,1.55-.84Z"/>
        <path class="cls-5" d="m556.6,103.14s-.5.39-1.45,1.01c-.95.62-2.34,1.5-4.07,2.57-3.46,2.13-8.28,5.01-13.63,8.13-5.36,3.11-10.25,5.87-13.82,7.81-1.78.97-3.24,1.74-4.25,2.26-1.01.52-1.58.79-1.6.76-.02-.03.52-.36,1.5-.93,1.06-.61,2.46-1.42,4.16-2.41,3.59-2.07,8.41-4.86,13.74-7.94,5.32-3.1,10.13-5.9,13.71-7.99,1.7-.99,3.1-1.81,4.15-2.42.98-.57,1.54-.87,1.55-.84Z"/>
        <path class="cls-1" d="m612.44,136.3s-.15.26-.49.73c-.33.47-.82,1.17-1.55,1.99-1.41,1.66-3.69,3.93-6.99,6.06-3.29,2.12-7.66,4.05-12.8,4.89-2.57.42-5.32.52-8.13.24-2.82-.26-5.68-.98-8.52-1.87-5.69-1.84-10.86-4.23-15.79-5.7-4.9-1.53-9.59-1.96-13.45-1.54-3.87.41-6.81,1.71-8.61,2.91-.89.61-1.56,1.13-1.97,1.53-.42.38-.66.58-.67.57-.01-.01.19-.23.6-.64.39-.43,1.04-.98,1.93-1.63,1.79-1.26,4.76-2.65,8.68-3.11,3.9-.47,8.66-.07,13.63,1.45,4.98,1.46,10.16,3.84,15.81,5.66,2.83.89,5.64,1.6,8.42,1.86,2.77.29,5.48.19,8.01-.2,5.07-.81,9.39-2.67,12.67-4.73,3.29-2.07,5.58-4.27,7.04-5.88.75-.79,1.26-1.47,1.61-1.92.36-.45.56-.68.57-.67Z"/>
        <path class="cls-1" d="m591.7,89.3s-.39.35-1.15.91c-.76.57-1.9,1.32-3.35,2.19-1.45.88-3.23,1.82-5.26,2.77-2.04.92-4.33,1.83-6.8,2.61-2.47.76-4.87,1.32-7.08,1.72-2.21.38-4.21.62-5.9.72-1.69.11-3.06.14-4,.1-.95-.02-1.47-.05-1.47-.09,0-.04.52-.07,1.46-.11.94-.03,2.3-.11,3.98-.27,1.68-.15,3.66-.42,5.84-.82,2.18-.43,4.56-.99,7.01-1.75,2.44-.77,4.72-1.66,6.76-2.55,2.02-.91,3.81-1.82,5.27-2.65,1.46-.82,2.63-1.53,3.42-2.04.8-.5,1.25-.77,1.27-.74Z"/>
        <path class="cls-1" d="m537.03,209.24s-.39-.29-1.03-.87c-.72-.65-1.64-1.47-2.74-2.45-2.33-2.04-5.64-4.78-9.52-7.49-1.94-1.35-3.88-2.49-5.76-3.26-1.88-.77-3.69-1.14-5.22-1.22-3.1-.16-4.89.78-4.91.66,0-.02.1-.08.31-.18.21-.1.52-.23.94-.36.83-.27,2.1-.53,3.68-.49,1.57.03,3.45.37,5.39,1.14,1.94.76,3.93,1.91,5.88,3.27,3.91,2.72,7.19,5.52,9.47,7.64,1.14,1.06,2.03,1.95,2.63,2.58.6.63.92,1,.89,1.02Z"/>
        <path class="cls-1" d="m620.25,227.94s-.11.13-.34.35c-.24.21-.58.55-1.07.92-.95.78-2.4,1.81-4.33,2.87-3.81,2.12-9.81,4.11-16.57,3.71-6.76-.41-12.47-3.13-16-5.69-1.79-1.28-3.1-2.48-3.95-3.37-.44-.43-.73-.81-.95-1.04-.21-.25-.31-.38-.3-.39.03-.03.5.46,1.39,1.29.88.84,2.22,1.99,4.02,3.21,3.54,2.46,9.18,5.07,15.82,5.47,6.64.4,12.55-1.5,16.37-3.51,1.93-1,3.4-1.98,4.38-2.7.98-.72,1.51-1.15,1.53-1.11Z"/>
        <path class="cls-1" d="m658.01,286.53s-.13-.14-.35-.42c-.23-.3-.56-.72-.98-1.26-.81-1.14-2.21-2.67-4.1-4.54-.5-.44-1.02-.91-1.57-1.4-.28-.24-.56-.5-.85-.75-.31-.23-.63-.46-.95-.71-.65-.48-1.33-.98-2.03-1.5-.75-.46-1.52-.94-2.33-1.43-3.25-1.9-7.19-3.71-11.79-4.92-4.59-1.2-9.83-1.83-15.39-1.34-5.56.46-11.39,2.16-16.86,5.22-5.47,3.1-10.57,7.34-16.02,11.5-2.73,2.08-5.57,4.14-8.64,5.93-3.07,1.79-6.4,3.3-9.96,4.19-3.55.93-7.22,1.11-10.77.87-3.56-.24-7.01-1-10.31-1.96-6.62-1.95-12.59-4.91-18.19-7.8-5.6-2.89-10.89-5.7-16.07-7.81-5.17-2.11-10.22-3.57-14.94-4.02-4.73-.44-9.06-.01-12.7.96-3.66.93-6.6,2.43-8.77,3.94-2.21,1.49-3.55,3.09-4.49,4.12-.41.55-.73.97-.95,1.28-.22.29-.34.43-.34.43,0,0,.09-.16.3-.46.22-.31.52-.75.92-1.31.92-1.05,2.25-2.69,4.46-4.22,2.17-1.56,5.13-3.1,8.81-4.06,3.67-1,8.04-1.46,12.81-1.04,4.78.43,9.87,1.88,15.07,3.98,5.21,2.1,10.53,4.9,16.13,7.78,5.6,2.87,11.55,5.81,18.11,7.74,3.27.95,6.69,1.7,10.2,1.94,3.5.23,7.11.05,10.61-.86,3.5-.87,6.78-2.36,9.83-4.13,3.05-1.77,5.87-3.81,8.6-5.89,5.44-4.15,10.57-8.39,16.09-11.52,1.39-.75,2.77-1.49,4.21-2.05.71-.29,1.41-.62,2.12-.88.73-.23,1.45-.45,2.16-.68,2.87-.9,5.76-1.34,8.56-1.62,5.62-.48,10.9.19,15.52,1.42,4.63,1.25,8.58,3.09,11.84,5.02.8.5,1.58.99,2.33,1.46.7.53,1.38,1.04,2.03,1.53.32.24.64.48.95.72.29.26.57.52.84.76.55.5,1.07.97,1.57,1.42,1.88,1.9,3.25,3.46,4.04,4.62.4.55.72.98.94,1.29.21.29.31.45.31.45Z"/>
        <path class="cls-1" d="m633.95,332.13s-.16.09-.48.2c-.38.13-.85.29-1.42.49-.62.22-1.38.46-2.28.67-.9.22-1.92.52-3.07.71-.58.11-1.18.22-1.8.34-.63.11-1.29.17-1.97.26-1.36.2-2.83.27-4.37.37-3.09.1-6.5-.02-10.04-.51-3.54-.53-6.84-1.37-9.78-2.33-1.45-.53-2.85-1-4.1-1.58-.63-.28-1.25-.52-1.82-.81-.57-.29-1.11-.57-1.64-.83-1.06-.5-1.95-1.08-2.75-1.54-.81-.46-1.47-.9-2-1.28-.49-.35-.9-.63-1.23-.87-.28-.2-.42-.32-.41-.33s.17.07.47.24c.34.21.76.47,1.28.78.55.35,1.22.77,2.04,1.2.81.44,1.71.99,2.77,1.47.52.25,1.07.52,1.64.79.57.27,1.19.5,1.82.77,1.25.56,2.63,1.01,4.08,1.52,2.92.93,6.2,1.75,9.71,2.27,3.51.48,6.88.62,9.95.55,1.53-.08,2.99-.13,4.34-.32.68-.08,1.34-.13,1.96-.23.62-.1,1.22-.21,1.8-.3,1.15-.16,2.17-.44,3.07-.63.91-.18,1.67-.4,2.3-.58.58-.16,1.06-.29,1.45-.39.33-.08.51-.12.52-.1Z"/>
      </g>
    </g>
    <g>
      <g>
        <g>
          <path class="cls-3" d="m425.71,185.67l-7-1.09-43.37-13.99-25.37-7.33c-5.93-2.05-13.61-2.76-21.95,1.49-11.98,6.11-45.05,36.88-45.05,36.88l23.81,24.55-11.22,49.68c12.55,35.68,37.12,39.77,37.12,39.77,0,0,16.14,1.45,35.2-5.82,22.82-8.7,46.77-29.09,49.77-37.86,1.8-5.26,3.28-16.32,4.47-28.81l36.12-14.72,9.79-49.97-42.33,7.22Z"/>
          <path class="cls-12" d="m372.95,274.11s-.11.12-.35.31c-.25.18-.59.48-1.08.79-.96.66-2.42,1.52-4.34,2.33-3.8,1.64-9.73,2.87-16.02,1.51-6.29-1.38-11.17-4.97-13.94-8.05-1.41-1.54-2.38-2.93-2.97-3.93-.32-.49-.5-.9-.65-1.17-.14-.27-.21-.42-.19-.43.04-.02.37.53,1.01,1.49.64.96,1.65,2.3,3.07,3.79,2.8,2.97,7.62,6.44,13.78,7.79,6.16,1.34,11.99.19,15.77-1.34,1.91-.76,3.39-1.56,4.37-2.16.98-.6,1.51-.97,1.54-.93Z"/>
          <path class="cls-12" d="m359.23,172.65s.03.08.08.24c.05.19.11.42.18.71.15.62.36,1.55.61,2.74.48,2.39,1.2,5.86,1.43,10.23.09,2.18.05,4.6-.41,7.14-.46,2.54-1.36,5.2-2.85,7.7-1.5,2.5-3.58,4.78-5.93,6.87-2.35,2.1-4.95,4.05-7.6,6.06-5.63,4.24-11.12,8.06-16.03,11.54-4.91,3.47-9.23,6.6-12.69,9.22l-.11.08-.11-.08c-3.09-2.5-5.43-4.66-6.95-6.25-.75-.8-1.29-1.45-1.63-1.92-.17-.23-.27-.42-.35-.55-.07-.13-.11-.19-.1-.2.02-.01.19.24.53.68.36.44.91,1.07,1.68,1.84,1.54,1.54,3.92,3.65,7.03,6.11h-.22c3.43-2.66,7.73-5.83,12.63-9.33,4.89-3.5,10.37-7.34,15.99-11.57,2.64-2.01,5.24-3.95,7.57-6.02,2.33-2.07,4.38-4.3,5.86-6.74,1.47-2.44,2.37-5.04,2.83-7.53.47-2.5.53-4.89.47-7.05-.18-4.34-.84-7.81-1.26-10.21-.22-1.16-.39-2.08-.52-2.76-.05-.29-.09-.53-.13-.72-.03-.16-.03-.25-.03-.25Z"/>
        </g>
        <g>
          <path class="cls-12" d="m547.56,195.16c10.16-8.7,13.59-24.37,8.01-36.53-4.77-.49-9.54-.98-14.31-1.48,7.26-3.81,11.64-12.48,10.4-20.59-7.71,8.32-21.06,10.78-31.23,5.75-6.68-3.3-12.1-9.45-19.44-10.74-6.66-1.17-13.21,1.95-19.59,4.22-6.37,2.27-14.1,3.52-19.38-.71-4.19-3.35-5.48-9.23-5.21-14.58.27-5.36,1.82-10.58,2.15-15.93.65-10.5-3.9-21.08-11.59-28.22-2.41-7.62-8.18-14.19-15.57-17.31-8.94-3.78-19.87-2.35-27.54,3.59-3.13,2.42-5.77,5.55-9.32,7.3-4.01,1.98-8.67,1.98-13.01,3.05-4.34,1.07-8.89,3.94-9.36,8.39l-1.75,9.11c-.29.65-.6,1.3-.96,1.92-3.69,6.47-11.23,10.72-12.87,17.98-.92,4.07.22,8.48-1.15,12.42-1.81,5.19-7.41,8.11-10.02,12.94-3.58,6.64-1.15,18.26,4.58,23.17,5.73,4.91,17.54,10.1,24.92,11.67,2-7.67,3.77-15.87,5.48-24.26,3.01,2.89,6.16,5.64,9.3,8.37,8.22,7.14,16.61,14.39,22.31,23.66,10.83,17.62,11.01,40.98,24.65,56.53,2.67,3.05,5.92,5.77,9.8,6.94,3.88,1.18,8.48.55,11.35-2.31,3.39-3.38,3.83-9.08,7.57-12.05,4.98-3.95,12.26-.8,17.62,2.63,3.88,2.48,7.75,5.1,12.15,6.46s9.51,1.27,13.24-1.41c3.74-2.68,5.38-8.4,2.68-12.13-1.08-1.49-2.69-2.53-3.76-4.03-1.07-1.5-1.38-3.87.08-4.98,1.62-1.23,3.88-.04,5.64.99,8.55,5.03,19.38,5.99,28.68,2.53,9.3-3.46,16.87-11.26,20.06-20.65-4.91.76-10.03.16-14.63-1.71Z"/>
          <path class="cls-12" d="m538.65,116.68s.48.33,1.29,1.11c.79.78,1.96,1.99,2.94,3.89.48.95.9,2.08,1.1,3.37.18,1.28.11,2.76-.49,4.18-.58,1.41-1.59,2.79-3.07,3.73-.74.46-1.6.81-2.52.91-.93.11-1.9-.04-2.8-.41-3.71-1.51-5.57-5.8-9.59-7.71-3.91-2.07-8.91-2.21-13.72-1.11-4.86,1.11-9.48,3.71-14.22,6.37-4.72,2.64-9.76,5.51-15.55,6.5-2.86.52-5.81.56-8.6-.06-1.39-.33-2.73-.82-3.98-1.48-1.24-.67-2.36-1.53-3.36-2.49-1.98-1.95-3.37-4.35-4.31-6.82-.95-2.47-1.47-5.02-1.76-7.52-.53-5.02-.11-9.79-.06-14.23.09-4.43-.17-8.6-1.21-12.22-.49-1.81-1.16-3.49-1.91-5.01-.74-1.53-1.56-2.9-2.42-4.13-1.71-2.46-3.52-4.33-5.12-5.7-1.59-1.39-2.98-2.27-3.91-2.88-.46-.27-.82-.49-1.09-.64-.24-.15-.37-.23-.36-.24,0,0,.14.06.39.19.27.15.64.35,1.12.6.95.59,2.36,1.44,3.98,2.82,1.63,1.36,3.47,3.22,5.22,5.69.88,1.23,1.73,2.61,2.48,4.15.77,1.53,1.45,3.22,1.97,5.05,1.08,3.67,1.36,7.87,1.29,12.32-.03,4.45-.43,9.22.11,14.17.29,2.47.82,4.98,1.75,7.4.93,2.41,2.28,4.75,4.2,6.63.97.92,2.04,1.76,3.24,2.4,1.2.63,2.5,1.11,3.85,1.43,2.71.6,5.58.57,8.39.05,5.68-.97,10.66-3.79,15.39-6.43,4.74-2.65,9.4-5.27,14.36-6.39,2.46-.54,4.94-.81,7.33-.62,1.2.06,2.36.3,3.49.57,1.11.34,2.21.7,3.2,1.25,4.15,2.03,6.01,6.34,9.53,7.75,1.71.74,3.61.46,5.01-.44,1.42-.88,2.41-2.2,2.98-3.56.59-1.36.67-2.78.51-4.04-.18-1.26-.57-2.37-1.04-3.31-.95-1.88-2.08-3.11-2.84-3.91-.39-.4-.7-.69-.91-.88-.21-.19-.32-.29-.31-.3Z"/>
          <path class="cls-12" d="m375.18,174.4s-.04-.15-.08-.45c-.05-.3-.09-.75-.27-1.31-.3-1.13-.99-2.77-2.46-4.46-1.49-1.66-3.71-3.35-6.63-4.61-2.9-1.32-6.49-1.97-10.44-2.72-3.91-.77-8.4-1.58-12.42-4.26-3.95-2.67-7.11-7.21-7.92-12.56-.82-5.32.9-11.3,4.98-15.55,4.14-4.25,9.99-6.35,14.77-10.09,1.18-.96,2.25-2.02,3.15-3.2.84-1.22,1.53-2.54,1.92-3.96.79-2.84.73-5.81,1-8.7.13-1.45.35-2.89.8-4.27.44-1.38,1.17-2.66,2.11-3.74,1.94-2.13,4.61-3.25,7.15-3.98,2.57-.75,5.12-1.21,7.54-1.88,2.41-.67,4.68-1.57,6.58-2.94,1.93-1.32,3.53-2.96,4.94-4.62,1.41-1.67,2.61-3.39,3.72-5.06,2.21-3.35,4.1-6.47,6.11-8.97,1.98-2.52,3.99-4.45,5.83-5.76,1.84-1.32,3.47-2.02,4.6-2.37,1.13-.36,1.75-.44,1.75-.44,0,.04-.61.15-1.72.54-1.11.38-2.72,1.1-4.52,2.43-1.81,1.32-3.78,3.25-5.72,5.77-1.98,2.5-3.84,5.62-6.03,8.99-1.11,1.68-2.31,3.42-3.72,5.12-1.41,1.69-3.03,3.35-5,4.72-1.94,1.41-4.28,2.35-6.71,3.03-2.44.68-4.99,1.15-7.53,1.9-2.52.73-5.08,1.83-6.92,3.85-.88,1.03-1.58,2.23-2,3.56-.43,1.32-.64,2.73-.77,4.16-.27,2.85-.19,5.85-1.01,8.8-.4,1.47-1.12,2.85-2,4.12-.93,1.24-2.04,2.32-3.24,3.3-2.44,1.91-5.12,3.37-7.69,4.89-2.56,1.51-5.04,3.11-7.04,5.15-3.97,4.12-5.66,9.95-4.88,15.12.77,5.21,3.85,9.66,7.69,12.28,3.91,2.63,8.35,3.47,12.25,4.26,3.93.76,7.56,1.44,10.49,2.81,2.94,1.3,5.18,3.04,6.67,4.74,1.47,1.73,2.14,3.42,2.41,4.57.16.57.19,1.03.22,1.33.03.3.03.46.03.46Z"/>
          <path class="cls-3" d="m455.02,84.63s-.28-.04-.77-.2c-.49-.15-1.17-.43-2-.81-1.66-.76-3.85-2.05-5.97-3.87-2.11-1.82-3.72-3.8-4.72-5.32-.5-.76-.87-1.4-1.1-1.86-.23-.45-.34-.71-.31-.73.08-.04.64.93,1.71,2.38,1.06,1.45,2.68,3.35,4.75,5.14,2.08,1.78,4.2,3.1,5.79,3.93,1.59.84,2.63,1.25,2.6,1.33Z"/>
          <path class="cls-3" d="m488.27,152.84s-.63-.15-1.76-.4c-1.13-.25-2.79-.5-4.85-.6-2.07-.09-4.53,0-7.27.21-2.74.19-5.76.47-8.95.4-3.19-.08-6.25-.56-8.83-1.66-2.57-1.09-4.58-2.7-5.92-4.32-1.34-1.63-2.01-3.25-2.28-4.39-.13-.57-.2-1.02-.21-1.33-.02-.31-.03-.47,0-.47.06,0,.09.64.41,1.75.32,1.1,1.02,2.65,2.36,4.2,1.33,1.55,3.32,3.08,5.82,4.12,2.51,1.04,5.51,1.5,8.65,1.58,3.15.07,6.16-.19,8.9-.36,2.74-.18,5.23-.23,7.32-.09,2.09.14,3.76.45,4.88.77.56.16.99.29,1.28.41.29.11.44.17.43.19Z"/>
          <path class="cls-3" d="m547.2,198.31s-.09.05-.29.13c-.2.08-.49.21-.89.28-.8.19-2.06.29-3.58-.16-1.5-.46-3.24-1.42-4.8-3.03-1.6-1.59-2.78-3.9-3.86-6.47-1.09-2.56-2.01-5.51-3.79-8.22-.84-1.39-1.97-2.64-3.17-3.87-1.28-1.16-2.66-2.29-4.24-3.21-6.28-3.78-14.53-5.34-22.95-4.84-8.47.44-16.43,2.1-23.8,2.62-7.36.66-14.12-.15-19.41-2.01-5.32-1.82-9.04-4.66-11.12-6.97-.55-.55-.96-1.12-1.33-1.59-.38-.47-.66-.89-.87-1.25-.2-.33-.36-.59-.49-.8-.11-.18-.16-.28-.15-.28,0,0,.07.08.2.25.13.2.31.45.53.77.22.34.51.76.9,1.21.38.46.8,1.01,1.36,1.55,2.11,2.25,5.82,5,11.09,6.76,5.25,1.79,11.93,2.56,19.25,1.87,7.33-.54,15.29-2.21,23.82-2.66,8.49-.5,16.85,1.08,23.23,4.95,1.6.94,3.01,2.1,4.31,3.29,1.23,1.26,2.38,2.55,3.22,3.97,1.81,2.79,2.7,5.76,3.77,8.32,1.04,2.56,2.18,4.84,3.72,6.41,1.51,1.59,3.19,2.57,4.65,3.04,1.47.47,2.71.41,3.5.25.8-.15,1.19-.35,1.2-.31Z"/>
        </g>
        <g>
          <g>
            <g>
              <path class="cls-10" d="m389.92,84.63c-3.88-.1-7.19,2.79-7.62,6.64h0l-8.09,84.21c-1.4,11.84,14.09,37.23,26.78,38.63h0c12.82,1.41,14.07-4.8,15.73-16.02,2.78-18.75,3.71-25.8,3.7-25.69,0,0,16.5-.55,22.62-21.18,3.04-10.26,4.78-27.51,5.75-41.67.87-12.75-5.46-29.36-18.23-29.68l-40.64,4.76Z"/>
              <g>
                <path class="cls-12" d="m443.21,120.72c-.14,1.43-1.46,2.5-2.96,2.38-1.5-.12-2.6-1.37-2.46-2.8.14-1.43,1.46-2.5,2.96-2.38,1.5.12,2.6,1.37,2.47,2.81Z"/>
                <path class="cls-12" d="m444.36,115.27c-.31.38-2.48-1-5.4-.79-2.93.17-4.97,1.82-5.31,1.49-.17-.15.13-.81,1.02-1.56.87-.74,2.4-1.51,4.22-1.63,1.82-.12,3.4.45,4.33,1.07.95.63,1.3,1.25,1.14,1.42Z"/>
              </g>
              <path class="cls-12" d="m417.48,122.24c-.35.35-2.37-1.24-5.3-1.32-2.93-.12-5.12,1.33-5.43.96-.15-.16.21-.8,1.17-1.45.94-.65,2.53-1.27,4.36-1.21,1.83.06,3.34.78,4.21,1.49.88.72,1.17,1.37,1,1.52Z"/>
              <path class="cls-12" d="m422.94,137.73c0-.17,1.86-.24,4.83-.23.75.02,1.47-.03,1.67-.52.25-.51.04-1.35-.21-2.27-.46-1.89-.94-3.87-1.45-5.94-1.99-8.45-3.32-15.36-2.98-15.44.34-.08,2.23,6.71,4.22,15.16.47,2.08.93,4.07,1.35,5.96.17.88.53,1.9,0,2.96-.27.53-.87.86-1.36.92-.49.08-.91.04-1.28,0-2.97-.23-4.8-.46-4.79-.62Z"/>
              <path class="cls-8" d="m420.42,172.4s-14.3-.95-27.23-11.24c0,0,5.21,15.42,26.56,16.23l.67-4.99Z"/>
            </g>
            <path class="cls-12" d="m417.89,117.23c-.46.71-3.23-.32-6.67-.71-3.44-.45-6.37-.1-6.65-.9-.12-.38.52-1,1.79-1.5,1.26-.5,3.15-.81,5.22-.56,2.06.25,3.83,1,4.93,1.78,1.11.78,1.59,1.54,1.38,1.88Z"/>
            <path class="cls-12" d="m443.92,111.34c-.48.69-2.53.1-4.96.2-2.43,0-4.46.68-4.97,0-.22-.33.07-1.01.93-1.69.85-.67,2.31-1.26,3.98-1.3,1.67-.03,3.15.5,4.02,1.14.89.64,1.21,1.31,1,1.65Z"/>
          </g>
          <path class="cls-8" d="m415.86,143.04c1.33-.9,3.01-1.25,4.58-.96.8.15,1.61.48,2.13,1.11.69.82.77,1.98.74,3.06-.02.64-.06,1.3-.28,1.9-.22.6-.64,1.16-1.22,1.43-.6.28-1.3.21-1.96.1-1.09-.18-2.18-.49-3.09-1.12s-1.62-1.6-1.73-2.7.51-2.28,1.55-2.66"/>
          <path class="cls-12" d="m423.75,149.46c-.22.08-.6-.56-1.3-1.44-.7-.88-1.77-1.99-3.21-2.81-1.44-.82-2.94-1.18-4.05-1.33-1.11-.16-1.86-.16-1.9-.39-.05-.2.65-.59,1.92-.72,1.25-.13,3.08.09,4.81,1.08,1.72.98,2.85,2.44,3.38,3.59.54,1.15.55,1.96.36,2.02Z"/>
        </g>
        <path class="cls-12" d="m373.08,169.69c6.94-1.38,12.3-7.35,14.69-14.02,2.39-6.66,2.27-13.95,1.63-21-.08-.91-.23-1.92-.95-2.48-1.05-.81-2.56-.15-3.69.54-4.38,2.67-8.58,5.62-12.58,8.84-3.72,3-7.4,6.45-8.83,11-2.19,6.99,2.44,15.34,9.53,17.19"/>
        <g>
          <path class="cls-10" d="m532.84,168.06l-32.78-52.68-9.05-18.54s-2.89-3.83-5.89-7.1c-4.93-5.37-9.79-1.2-9.79-1.2,0,0-.71-2.05-3.29-2.03-3.08.03-4.53,2.31-4.53,2.31,0,0-1.34-1.49-5.06-1.72-.8-.05-1.6.26-2.36.76-1.22-1.07-3.45-2.62-5.61-1.83-1.68.61-11.87,8.36-14.38,12.26-1.24,1.93,1.06,4.43,4.16,3.26,1.36-.52,2.73-.93,3.72-1.51,1.66-.97,2.52-2.03,2.52-2.03,0,0-2.57,4.5,0,5.29,1.07.33,3.34.09,4.82-1.17.98-.83,2.11-1.9,3.18-2.94-.04.06-.09.12-.13.18-1.42,2.1,2.28,5.21,4.08,3.95.9-.63,1.69-1.27,2.39-1.89,4.16,3.02-1.62,6.89-4.06,6.69-3.78-.31-8.2-.29-11.28-.04-2.12.18-4.02.68-5.16,1.86-1.38,1.42.07,4.4,2.02,4.7,3.59.55,8.17,1.35,12.93,2.58,5.61,1.44,20.27,6.21,20.27,6.21l1.43,1.16,19.94,48.61-34.13,7.23-7.62,43.24,61.6-16.71c13.88-7.22,20.45-25.69,12.05-38.89Z"/>
          <path class="cls-8" d="m479.56,123.42s-.27-.05-.78-.19c-.55-.16-1.29-.37-2.21-.63-1.97-.58-4.72-1.4-8.1-2.41-1.71-.52-3.58-1.08-5.59-1.69-2.01-.62-4.15-1.26-6.44-1.84-2.28-.58-4.69-1.16-7.22-1.49-1.23-.19-2.62-.07-3.92-.71-.32-.16-.63-.36-.88-.66-.12-.15-.23-.31-.3-.54l-.08-.53c-.08-.69-.09-1.41.13-2.12.23-.72.79-1.31,1.42-1.64.62-.35,1.28-.55,1.91-.76,1.31-.42,2.66-.49,3.95-.49,2.6.03,5.05.39,7.39.3,1.17-.04,2.31-.14,3.39-.33,1.09-.2,2.13-.48,3.15-.74,2.02-.54,4.01-.93,5.83-.74,1.81.15,3.38.66,4.7,1.2,1.32.54,2.4,1.12,3.28,1.61.87.49,1.53.9,1.98,1.17.44.28.67.44.66.45s-.26-.11-.72-.36c-.51-.27-1.18-.63-2.02-1.09-.89-.46-1.97-1.01-3.29-1.52-1.31-.51-2.86-.98-4.62-1.1-1.76-.16-3.67.24-5.69.79-1.01.27-2.06.57-3.18.78-1.12.21-2.27.32-3.46.36-2.39.11-4.87-.24-7.41-.27-1.27,0-2.57.08-3.79.47-1.22.4-2.62.83-2.99,2.07-.19.59-.18,1.25-.11,1.9l.06.46c.03.1.11.23.19.33.19.22.44.39.71.52,1.12.56,2.46.47,3.75.66,2.57.34,4.98.94,7.27,1.53,2.29.6,4.44,1.25,6.44,1.89,2,.63,3.86,1.21,5.57,1.75,3.36,1.07,6.1,1.95,8.06,2.57.91.3,1.64.54,2.18.72.5.17.76.27.75.29Z"/>
          <path class="cls-8" d="m454.29,86.11c.05.08-1.54,1.01-3.9,2.79-1.18.89-2.53,2.02-3.92,3.4-1.4,1.36-2.87,2.96-4.61,4.45-.85.72-1.65,1.5-1.85,2.47-.1.47-.06.96.17,1.34.22.39.61.65,1.03.8.87.29,1.8.21,2.64.05.84-.16,1.61-.39,2.29-.66,2.73-1.11,3.99-2.56,4.06-2.46.02.02-.27.38-.9.93-.63.55-1.63,1.27-3.02,1.87-.69.3-1.48.56-2.35.74-.86.18-1.86.3-2.88-.02-.5-.16-1.01-.49-1.31-1-.31-.5-.36-1.13-.25-1.7.23-1.18,1.16-2.04,2.01-2.76,1.71-1.47,3.18-3.04,4.61-4.4,1.43-1.37,2.82-2.48,4.04-3.35,1.21-.87,2.25-1.49,2.97-1.91.73-.41,1.14-.62,1.15-.59Z"/>
          <path class="cls-8" d="m466.8,90.25s-.39.51-1.16,1.38c-.83.92-1.94,2.14-3.29,3.62-1.42,1.54-3.09,3.33-4.93,5.32-.95,1.02-2.08,1.97-3.46,2.64-.69.33-1.46.58-2.29.57-.82-.02-1.68-.26-2.3-.92-.33-.34-.49-.8-.55-1.25-.04-.45.03-.88.13-1.29.23-.81.61-1.52,1.06-2.19h0s.02-.03.02-.03c1.76-1.87,3.4-3.63,4.88-5.25,1.5-1.59,2.94-2.89,4.11-4,.58-.55,1.12-1.07,1.71-1.38.61-.31,1.18-.3,1.62-.35.88-.06,1.4.02,1.36.11.02-.04-.47-.05-1.34.06-.42.08-1,.1-1.51.4-.53.3-1.03.82-1.61,1.39-1.14,1.14-2.55,2.46-4.02,4.06-1.44,1.62-3.08,3.41-4.84,5.31l.02-.03c-.41.6-.77,1.3-.97,2.02-.1.36-.14.74-.12,1.1.05.35.17.69.41.95.46.5,1.23.74,1.92.75.72,0,1.42-.21,2.07-.52,1.29-.62,2.41-1.54,3.33-2.51,1.87-1.96,3.57-3.73,5.01-5.25,1.4-1.43,2.55-2.62,3.41-3.51.37-.37.69-.68.95-.94.22-.21.34-.31.36-.3Z"/>
          <path class="cls-8" d="m482.12,95.07c.05.04-.05.3-.4.58-.34.27-.96.53-1.66.41-.7-.12-1.2-.57-1.42-.95-.23-.38-.24-.66-.17-.68.07-.03.2.19.46.45.26.26.69.57,1.22.66.53.09,1.04-.05,1.37-.21.34-.16.53-.32.59-.27Z"/>
          <path class="cls-8" d="m483.32,99.66c-.11.09-.86-.66-1.52-1.78-.66-1.12-.96-2.14-.83-2.19.14-.06.64.84,1.28,1.93.64,1.09,1.19,1.96,1.07,2.05Z"/>
          <path class="cls-8" d="m485.53,117.54c-.05.03-.5-.74-.95-2.08-.45-1.34-.85-3.29-.82-5.47.03-2.18.48-4.11.97-5.44.48-1.33.95-2.08,1-2.06.17.05-1.42,3.24-1.45,7.51-.09,4.27,1.42,7.5,1.25,7.54Z"/>
          <path class="cls-8" d="m512.45,186.83c-.1.01-.2-1.06-.72-2.69-.25-.82-.65-1.75-1.18-2.75-.55-.98-1.24-2.01-2.09-2.99-.86-.97-1.8-1.79-2.7-2.46-.92-.65-1.79-1.17-2.57-1.53-1.55-.73-2.6-.96-2.57-1.06,0-.04.27,0,.75.1.48.09,1.16.3,1.97.62.81.32,1.74.82,2.7,1.47.95.67,1.92,1.51,2.81,2.51.88,1.01,1.58,2.09,2.12,3.11.52,1.04.9,2.02,1.11,2.87.22.85.34,1.55.36,2.03.03.49.04.76,0,.76Z"/>
        </g>
        <g>
          <path class="cls-10" d="m398.07,283.14c-4.37-.91-8.32,1.06-8.32,1.06-4.45-1.97-9.94,1.43-9.94,1.43-1.61-.77-11.31,5.57-11.31,5.57l-12.08,5.7-64.53-47.95,18.29-19.03-25.63-26.67-30.04,30.91c-3.74,3.86-5.63,9.07-5.99,14.55-.76,11.75,5.94,22.72,16.44,28.04l76.04,39s8.06-.28,17.29-2.69c6.56-1.71,17.77-6.69,17.77-6.69,0,0-.03.34,1.97,4.22,3.61,6.99,8.9-.55,8.9-.55,0,0,1.08,2.48,2.05,3.42,4.57,4.43,7.74-1.52,7.74-1.52,0,0,1.37,2.39,5.46.61,4.07-1.77-.59-14.06-.59-14.06,0,0,1.37,2.67,4.02-.71,2.65-3.38-3.15-13.73-7.53-14.64Z"/>
          <path class="cls-8" d="m388.94,284.82s.27-.18.84-.32c.56-.15,1.44-.19,2.45.07,1.01.26,2.14.82,3.23,1.65.55.42,1.09.87,1.61,1.44.51.57.91,1.25,1.26,1.95,1.39,2.8,2.36,5.46,2.95,7.41.3.98.5,1.78.63,2.33.12.56.17.87.14.88-.08.02-.44-1.19-1.11-3.1-.68-1.91-1.7-4.52-3.07-7.29-.34-.68-.72-1.32-1.18-1.85-.47-.52-1-.99-1.52-1.39-1.04-.82-2.1-1.38-3.04-1.68-1.93-.6-3.17.03-3.19-.11Z"/>
          <path class="cls-8" d="m396.71,311.94s-.23-.38-.56-1.11c-.38-.82-.85-1.85-1.41-3.06-1.19-2.59-2.93-6.12-4.59-10.16-.81-2.02-1.55-3.95-2.63-5.46-1.05-1.53-2.44-2.52-3.71-3.1-1.27-.59-2.44-.67-3.2-.57-.77.1-1.17.31-1.2.26,0-.02.09-.07.28-.17.19-.1.49-.21.89-.29.79-.17,2.03-.13,3.38.43,1.34.55,2.84,1.57,3.96,3.15,1.14,1.56,1.91,3.54,2.72,5.55,1.65,4.01,3.34,7.57,4.45,10.21.56,1.31.99,2.39,1.26,3.14.28.75.41,1.17.37,1.19Z"/>
          <path class="cls-8" d="m367.09,296.51s.35-.24,1.03-.57c.78-.38,1.74-.84,2.88-1.39.62-.29,1.27-.61,2.02-.93.77-.31,1.66-.46,2.59-.38.93.09,1.89.42,2.71,1.04.82.63,1.43,1.48,1.99,2.37.55.89.98,1.82,1.4,2.69.43.87.87,1.69,1.3,2.47.87,1.55,1.69,2.95,2.3,4.16.61,1.21,1.03,2.23,1.28,2.95.25.72.35,1.12.32,1.14-.09.03-.63-1.56-1.93-3.91-.64-1.18-1.49-2.55-2.39-4.1-.45-.78-.9-1.6-1.34-2.48-.44-.88-.86-1.78-1.39-2.64-.53-.86-1.13-1.67-1.85-2.23-.73-.56-1.61-.87-2.45-.97-.85-.09-1.68.03-2.39.3-.72.29-1.4.6-2.02.86-1.17.49-2.15.9-2.95,1.24-.7.28-1.1.42-1.11.39Z"/>
          <path class="cls-8" d="m368.49,291.2s-.3.23-.88.56c-.58.33-1.43.79-2.49,1.35-2.11,1.12-5.05,2.63-8.31,4.27-3.26,1.64-6.22,3.1-8.38,4.14-1.08.52-1.96.93-2.57,1.2-.61.27-.96.41-.97.37-.02-.03.3-.23.88-.56.58-.33,1.43-.79,2.49-1.35,2.11-1.12,5.05-2.63,8.31-4.27,3.26-1.64,6.22-3.1,8.38-4.14,1.08-.52,1.95-.93,2.57-1.2.61-.27.96-.41.97-.38Z"/>
          <path class="cls-8" d="m292.74,249.06c-.03.17-3.41-.77-7.62-.25-4.21.47-7.29,2.18-7.35,2.02-.03-.05.69-.55,1.98-1.12,1.29-.57,3.16-1.17,5.31-1.42,2.14-.25,4.11-.11,5.49.14,1.39.25,2.2.56,2.19.62Z"/>
        </g>
        <g>
          <path class="cls-12" d="m435.25,75.84c-15.97-.22-31.96,1.47-47.53,5.02-3.61.82-7.43,1.88-9.87,4.67-2.58,2.94-3.04,7.14-3.38,11.04-.41,4.75-.82,9.5-1.24,14.25-.69,1.19-1.46,2.33-2.28,3.4-3.76,4.91-8.55,9-11.97,14.16-3.42,5.15-5.31,12-2.52,17.52,1.68,3.34,4.81,5.69,7.09,8.66,3.87,5.03,5.13,11.51,7.39,17.44,2.26,5.93,6.34,11.97,12.57,13.16,2.97.57,6.06-.06,9.05.38,4.47.65,8.23,3.58,11.79,6.37,3.56,2.79,7.41,5.64,11.9,6.08,4.5.45,9.65-2.6,9.74-7.12-3.3,1.92-7.68,1.79-10.87-.31-2.62-1.72-4.31-4.52-6.56-6.71-5.52-5.36-14.43-7.06-18.27-13.73-3.04-5.28-1.83-11.88-.45-17.81,1.2-5.14,2.41-10.72.93-15.66.11-.79.18-1.6.18-2.4.04-5.26-2.05-10.9.4-15.55,3.24-6.16,12.58-6.93,15.85-13.07,1.9-3.57,1.23-8.13,3.31-11.59,1.96-3.26,5.86-4.76,9.58-5.57,3.71-.81,7.63-1.18,10.92-3.1,3.28-1.91,5.72-6.03,4.24-9.53Z"/>
          <path class="cls-12" d="m447.37,183.13s-.04.09-.15.25c-.13.18-.29.41-.49.7-.45.6-1.2,1.42-2.3,2.33-1.12.88-2.64,1.79-4.56,2.45-1.91.66-4.25,1.06-6.81.79-2.55-.21-5.31-1.25-7.66-3.14-2.38-1.83-4.5-4.26-7.19-6.19-1.35-.95-2.89-1.71-4.58-1.92-1.7-.24-3.43.25-5.1.92-1.68.66-3.37,1.51-5.3,1.83-1.93.34-3.95-.13-5.69-1.01-1.77-.87-3.32-2.04-4.81-3.19-1.49-1.16-2.95-2.33-4.22-3.67-1.28-1.32-2.38-2.83-3-4.52-.66-1.69-.69-3.53-.34-5.2.33-1.68.94-3.21,1.51-4.69.58-1.48,1.08-2.92,1.52-4.34.86-2.84,1.46-5.55,1.85-8.04.78-4.99.78-9.11.65-11.93-.06-1.41-.15-2.51-.23-3.25-.03-.35-.06-.63-.07-.84-.01-.19-.02-.29,0-.29s.03.09.06.28c.03.22.07.49.13.84.11.74.23,1.83.33,3.25.19,2.83.25,6.96-.48,12-.37,2.51-.95,5.24-1.8,8.11-.44,1.43-.93,2.9-1.51,4.38-.56,1.48-1.15,3-1.47,4.62-.32,1.61-.29,3.33.34,4.93.59,1.61,1.65,3.05,2.9,4.34,1.25,1.3,2.69,2.46,4.17,3.61,1.48,1.15,3.01,2.29,4.72,3.13,1.69.85,3.58,1.28,5.39.97,1.81-.29,3.49-1.12,5.19-1.79,1.69-.68,3.53-1.2,5.34-.94,1.8.23,3.42,1.05,4.8,2.03,2.75,2,4.85,4.43,7.18,6.25,2.29,1.87,4.94,2.88,7.43,3.11,2.49.29,4.79-.08,6.68-.7,1.9-.62,3.41-1.49,4.53-2.33,2.23-1.74,2.99-3.17,3.07-3.11Z"/>
          <path class="cls-3" d="m347.46,151.33s-.31-.35-.8-1.1c-.47-.76-1.06-1.97-1.41-3.64-.36-1.67-.41-3.8.1-6.18.53-2.36,1.58-4.99,3.46-7.42,1.84-2.44,4.34-4.71,7.22-6.83,2.87-2.14,6.13-4.12,9.38-6.44,3.22-2.33,6.52-5.03,8.9-8.65,1.2-1.79,2.05-3.83,2.7-5.97.65-2.14,1.09-4.38,1.6-6.64.51-2.26,1.09-4.5,2.02-6.58.9-2.09,2.24-3.99,3.93-5.43,1.69-1.44,3.66-2.46,5.67-3.12,2.01-.68,4.07-1.03,6.08-1.2,4.03-.35,7.85.1,11.4.36,3.55.29,6.86.45,9.86.13,3-.29,5.62-1.19,7.73-2.3,2.1-1.14,3.69-2.5,4.74-3.82,1.05-1.31,1.62-2.51,1.91-3.35.28-.84.39-1.3.42-1.29,0,0-.06.47-.32,1.33-.27.85-.81,2.09-1.86,3.44-1.03,1.36-2.64,2.77-4.76,3.95-2.13,1.15-4.78,2.09-7.83,2.41-3.03.35-6.38.21-9.93-.06-3.55-.25-7.35-.67-11.32-.31-1.98.18-4,.53-5.96,1.2-1.97.65-3.87,1.64-5.5,3.04-1.63,1.39-2.91,3.22-3.79,5.26-.9,2.03-1.48,4.24-1.99,6.49-.52,2.25-.96,4.5-1.61,6.67-.65,2.17-1.54,4.27-2.77,6.1-2.44,3.7-5.8,6.42-9.05,8.76-3.28,2.32-6.54,4.29-9.4,6.4-2.87,2.08-5.35,4.31-7.18,6.7-1.86,2.37-2.92,4.94-3.47,7.26-.52,2.33-.51,4.43-.18,6.08.66,3.33,2.14,4.74,2.02,4.78Z"/>
          <path class="cls-3" d="m350.39,156.58s-1.24-.9-3.07-2.95c-.9-1.03-1.96-2.38-2.67-4.24-.34-.92-.57-1.99-.46-3.13.1-1.13.57-2.29,1.35-3.28,1.62-1.98,4.3-3.05,7.11-3.64,1.42-.3,2.89-.53,4.36-.89,1.47-.36,2.97-.87,4.26-1.77,1.28-.92,2.33-2.2,3.1-3.67.79-1.47,1.34-3.11,1.92-4.77.58-1.66,1.16-3.38,2.04-5.01.85-1.64,2.12-3.14,3.75-4.15,1.63-1.01,3.44-1.57,5.21-2.03,1.77-.46,3.52-.83,5.17-1.39,3.34-1.05,5.96-3.34,7.94-5.85,2.01-2.51,3.48-5.22,4.93-7.71,1.44-2.49,2.87-4.79,4.49-6.66,1.59-1.89,3.39-3.29,5.13-4.19,1.75-.91,3.42-1.32,4.79-1.45,1.38-.11,2.46.06,3.15.26.7.19,1.04.36,1.04.36,0,.03-.37-.11-1.06-.26-.69-.16-1.76-.29-3.11-.16-1.35.15-2.97.59-4.67,1.5-1.7.91-3.44,2.3-4.99,4.17-1.57,1.85-2.98,4.14-4.4,6.64-1.43,2.49-2.89,5.23-4.93,7.79-1.01,1.28-2.17,2.51-3.53,3.57-1.35,1.07-2.93,1.91-4.63,2.47-1.69.58-3.45.95-5.2,1.41-1.75.46-3.51,1.01-5.06,1.97-1.55.96-2.75,2.37-3.58,3.96-.85,1.58-1.43,3.27-2.01,4.93-.58,1.66-1.14,3.32-1.96,4.84-.8,1.52-1.9,2.87-3.27,3.84-1.37.95-2.93,1.46-4.43,1.82-1.5.36-2.98.58-4.38.87-2.77.56-5.37,1.59-6.91,3.45-.75.92-1.2,2.01-1.31,3.08-.12,1.07.08,2.1.4,2.99.66,1.8,1.69,3.16,2.55,4.2.88,1.04,1.63,1.79,2.14,2.3.24.23.43.42.59.57.13.13.2.2.19.21Z"/>
        </g>
      </g>
      <path class="cls-8" d="m473.49,91.98s-.16.3-.52.77c-.36.48-.9,1.15-1.58,1.97-1.36,1.64-3.32,3.84-5.62,6.15-1.14,1.11-2.21,2.38-3.68,2.84-.71.22-1.47.23-2.11-.02-.65-.25-1.09-.75-1.36-1.24-.54-1.01-.45-1.96-.38-2.54.09-.6.21-.91.24-.9.04,0,0,.34-.04.92-.01.57-.03,1.47.49,2.34.26.43.65.83,1.19,1.02.53.19,1.19.18,1.81-.03,1.27-.41,2.31-1.62,3.46-2.75,2.29-2.3,4.28-4.45,5.71-6.02,1.43-1.57,2.31-2.55,2.37-2.5Z"/>
      <path class="cls-8" d="m481.13,91.99s-.19.3-.6.78-1.02,1.16-1.78,1.99c-.8.86-1.7,1.84-2.69,2.91-.51.55-1.05,1.12-1.6,1.71-.56.59-1.15,1.21-1.88,1.73-.72.52-1.56.91-2.44.97-.87.08-1.79-.29-2.27-.99-.24-.34-.38-.75-.37-1.16,0-.41.17-.77.34-1.07.37-.6.75-1.06,1.08-1.52.67-.91,1.22-1.64,1.6-2.14.39-.5.62-.76.65-.74.03.02-.14.33-.48.86-.34.53-.84,1.3-1.47,2.23-.3.47-.69.98-1,1.52-.32.54-.37,1.2.04,1.74.39.54,1.1.83,1.85.76.75-.05,1.5-.4,2.17-.88.67-.48,1.25-1.08,1.81-1.66.56-.58,1.1-1.14,1.62-1.68,1.02-1.04,1.95-1.99,2.77-2.83.79-.8,1.44-1.44,1.9-1.88s.72-.66.75-.64Z"/>
    </g>
  </g>
  <g id="Plants">
    <g>
      <path class="cls-5" d="m585.54,398.13c1.71-3.72,5.32-6.5,9.35-7.2,4.03-.7,8.37.71,11.23,3.64-1.95,3.47-5.45,5.78-9.21,7.07-4.43,1.53-9.24-.26-11.38-3.51"/>
      <path class="cls-12" d="m578.44,399.77c-.02-.06,1.07-.46,2.87-.9,1.81-.44,4.32-.94,7.12-1.4,2.79-.46,5.34-.81,7.18-1.02,1.84-.22,2.99-.3,3-.23,0,.07-1.12.29-2.95.6-1.99.33-4.44.73-7.15,1.17-2.79.46-5.31.9-7.13,1.24-1.82.34-2.93.61-2.95.54Z"/>
    </g>
    <g>
      <path class="cls-5" d="m228.11,334.82c4.24,3.49,6.57,9.18,5.98,14.65s-4.07,10.53-8.96,13.04c-3.67-9.41-5.08-19.53,2.98-27.68"/>
      <g>
        <path class="cls-5" d="m242.02,342.04c.39,7.1,4.54,13.89,10.69,17.46,6.15,3.57,14.1,3.83,20.46.65-6.99-11.04-16.47-20.28-31.15-18.11"/>
        <path class="cls-12" d="m210.15,307.26s.17.16.46.5c.32.38.73.88,1.25,1.49,1.07,1.31,2.61,3.2,4.57,5.49,3.9,4.6,9.41,10.86,15.9,17.39,3.25,3.26,6.44,6.27,9.41,8.93,2.99,2.64,5.76,4.93,8.15,6.75,2.42,1.79,4.42,3.19,5.89,4.01,1.45.86,2.31,1.21,2.29,1.27,0,.02-.22-.07-.63-.24-.41-.18-1.02-.42-1.75-.85-1.51-.77-3.55-2.13-6.01-3.89-2.44-1.79-5.23-4.06-8.25-6.69-2.99-2.65-6.2-5.66-9.46-8.92-6.5-6.54-11.98-12.85-15.81-17.52-1.92-2.33-3.43-4.25-4.45-5.6-.48-.64-.87-1.15-1.17-1.55-.26-.36-.39-.55-.38-.56Z"/>
      </g>
      <path class="cls-12" d="m227.34,349.05c-.09-.02.25-1.41.53-3.68.29-2.27.45-5.44.1-8.91-.37-3.47-1.18-6.54-1.93-8.7-.75-2.16-1.36-3.45-1.28-3.49.03-.02.21.29.51.87.31.57.69,1.42,1.11,2.5.85,2.15,1.73,5.25,2.11,8.77.36,3.52.13,6.74-.25,9.02-.19,1.14-.39,2.06-.57,2.68-.17.62-.29.96-.32.95Z"/>
    </g>
    <g>
      <path class="cls-5" d="m668.65,146.67c-2.47-3.27-3.2-7.77-1.9-11.65,1.3-3.88,4.59-7.04,8.53-8.16,2.13,3.36,2.5,7.53,1.86,11.46-.76,4.63-4.61,8.01-8.48,8.35"/>
      <path class="cls-12" d="m666.73,153.71c-.06-.01.1-1.16.58-2.96.47-1.8,1.23-4.25,2.15-6.93.92-2.68,1.82-5.08,2.5-6.8.68-1.73,1.15-2.77,1.22-2.75.07.03-.28,1.12-.87,2.88-.66,1.91-1.46,4.25-2.36,6.85-.92,2.67-1.73,5.1-2.29,6.86-.56,1.76-.85,2.87-.93,2.85Z"/>
    </g>
    <g>
      <g>
        <path class="cls-5" d="m624.58,221.07c-2.06-7.64-.13-16.25,5.01-22.27,5.14-6.02,13.33-9.3,21.2-8.47,1.39,7.56-.96,15.32-4.95,21.9-4.71,7.75-14.07,11.03-21.26,8.85"/>
        <path class="cls-12" d="m595.04,250.67s.13-.2.42-.54c.33-.38.76-.86,1.29-1.47,1.15-1.26,2.82-3.06,4.92-5.26,4.19-4.4,10.05-10.41,16.57-17.01,6.52-6.6,12.46-12.53,16.78-16.81,2.14-2.1,3.88-3.81,5.14-5.04.58-.56,1.05-1.01,1.42-1.35.33-.3.51-.46.52-.45s-.14.19-.44.52c-.34.36-.79.83-1.35,1.42-1.23,1.26-2.93,3.01-5.02,5.16-4.3,4.37-10.18,10.33-16.67,16.92-6.49,6.58-12.37,12.54-16.68,16.9-2.09,2.14-3.8,3.88-5.04,5.14-.56.58-1.02,1.04-1.36,1.4-.32.32-.49.48-.5.47Z"/>
        <g class="cls-9">
          <path d="m624.58,221.07c-2.06-7.64-.13-16.25,5.01-22.27,5.14-6.02,13.33-9.3,21.2-8.47,1.39,7.56-.96,15.32-4.95,21.9-4.71,7.75-14.07,11.03-21.26,8.85"/>
        </g>
      </g>
      <g>
        <path class="cls-5" d="m610.92,224.04c-4.32-2.22-7.43-6.66-8.04-11.48-.61-4.82,1.28-9.89,4.91-13.12,4.01,2.49,6.56,6.77,7.9,11.29,1.57,5.34-.8,10.94-4.77,13.31"/>
        <g class="cls-9">
          <path d="m610.92,224.04c-4.32-2.22-7.43-6.66-8.04-11.48-.61-4.82,1.28-9.89,4.91-13.12,4.01,2.49,6.56,6.77,7.9,11.29,1.57,5.34-.8,10.94-4.77,13.31"/>
        </g>
        <path class="cls-12" d="m612.48,232.56s-.14-.32-.31-.91c-.17-.6-.36-1.47-.57-2.55-.42-2.17-.86-5.18-1.26-8.52-.4-3.34-.68-6.37-.84-8.56-.17-2.2-.22-3.56-.15-3.56.07,0,.25,1.34.51,3.53.27,2.33.61,5.28.99,8.54.4,3.33.78,6.34,1.11,8.52.32,2.17.59,3.5.51,3.52Z"/>
      </g>
    </g>
    <g>
      <path class="cls-5" d="m423.67,339.95c3.05-7.19,9.87-12.65,17.55-14.05,7.68-1.4,15.99,1.31,21.37,6.96-11.34,8.79-24.57,14.79-38.93,7.09"/>
      <g class="cls-9">
        <path d="m423.67,339.95c3.05-7.19,9.87-12.65,17.55-14.05,7.68-1.4,15.99,1.31,21.37,6.96-11.34,8.79-24.57,14.79-38.93,7.09"/>
      </g>
      <path class="cls-12" d="m417.26,343.46s.3-.28.9-.7c.6-.43,1.49-1,2.62-1.66,2.26-1.33,5.54-2.93,9.35-4.19,3.81-1.25,7.4-1.91,10.01-2.19,1.3-.14,2.36-.21,3.1-.22.73-.02,1.14,0,1.14.03,0,.09-1.61.19-4.19.56-2.58.37-6.11,1.08-9.89,2.32-3.77,1.25-7.04,2.78-9.33,4.02-2.3,1.23-3.65,2.11-3.7,2.04Z"/>
    </g>
    <g>
      <path class="cls-5" d="m160.06,209.64c5.46-2.55,12.2-2.16,17.33,1.01,5.13,3.17,8.5,9.01,8.67,15.04-11.05-.81-21.74-4.21-25.99-16.05"/>
      <g class="cls-9">
        <path d="m160.06,209.64c5.46-2.55,12.2-2.16,17.33,1.01,5.13,3.17,8.5,9.01,8.67,15.04-11.05-.81-21.74-4.21-25.99-16.05"/>
      </g>
      <path class="cls-12" d="m154.57,208.35s.32-.02.88.04c.56.05,1.38.18,2.37.38,1.99.4,4.7,1.16,7.54,2.41,2.84,1.25,5.24,2.73,6.87,3.93.82.6,1.46,1.11,1.88,1.49.43.38.65.59.63.62-.05.07-1.04-.7-2.72-1.81-1.68-1.11-4.07-2.52-6.87-3.76-2.8-1.23-5.46-2.04-7.41-2.53-1.95-.49-3.18-.7-3.17-.78Z"/>
    </g>
    <g>
      <path class="cls-5" d="m518.39,327.69c-.65-5.35,1.56-10.97,5.68-14.45,4.12-3.48,10.03-4.72,15.2-3.19-3.77,9.17-9.63,17.32-20.88,17.64"/>
      <path class="cls-12" d="m515.76,332c-.05-.03.36-1.07,1.25-2.66.89-1.58,2.29-3.68,4.15-5.75,1.86-2.07,3.79-3.69,5.26-4.75,1.48-1.06,2.47-1.58,2.5-1.53.04.07-.88.7-2.28,1.82-1.41,1.12-3.27,2.76-5.1,4.8-1.83,2.04-3.26,4.07-4.22,5.59-.96,1.52-1.49,2.5-1.56,2.47Z"/>
    </g>
    <g>
      <path class="cls-5" d="m597.08,275.75c-1.64-5.14-.53-11.07,2.86-15.26,3.39-4.19,8.96-6.52,14.33-5.99-1.98,9.71-6.2,18.82-17.19,21.25"/>
      <g class="cls-9">
        <path d="m597.08,275.75c-1.64-5.14-.53-11.07,2.86-15.26,3.39-4.19,8.96-6.52,14.33-5.99-1.98,9.71-6.2,18.82-17.19,21.25"/>
      </g>
      <path class="cls-12" d="m595.31,280.47c-.06-.02.15-1.12.73-2.84.57-1.72,1.56-4.05,2.99-6.43,1.43-2.38,3.03-4.34,4.28-5.65,1.25-1.32,2.13-2.02,2.17-1.97.06.06-.73.85-1.9,2.22-1.17,1.36-2.69,3.33-4.11,5.68-1.41,2.35-2.43,4.61-3.09,6.28-.66,1.67-.99,2.74-1.07,2.72Z"/>
    </g>
    <g>
      <path class="cls-5" d="m3.91,204.23c1.17-5.27,5.12-9.83,10.16-11.74,5.04-1.91,11.03-1.12,15.39,2.05-6.6,7.39-14.84,13.13-25.55,9.69"/>
      <path class="cls-12" d="m0,207.42s.69-.89,2.06-2.09c1.36-1.2,3.39-2.71,5.82-4.04,2.44-1.33,4.8-2.22,6.54-2.73,1.74-.51,2.86-.67,2.87-.61.02.08-1.06.37-2.76.96-1.7.59-4,1.52-6.41,2.83-2.4,1.32-4.43,2.76-5.84,3.87-1.41,1.11-2.24,1.87-2.3,1.81Z"/>
    </g>
  </g>
  <g id="Speech_Bubble" data-name="Speech Bubble">
    <g>
      <g>
        <path class="cls-1" d="m461,73.73l8.04-14.49c-3.67-5.84-5.83-12.73-5.9-20.13-.2-21.28,16.88-38.7,38.17-38.91,21.28-.2,38.7,16.88,38.91,38.17.2,21.28-16.88,38.7-38.17,38.91-8.89.09-17.09-2.85-23.66-7.84v.02s-17.38,4.27-17.38,4.27Z"/>
        <path class="cls-12" d="m461,73.73c.9-.23,6.34-1.61,17.36-4.4l-.07.21v-.02s-.62-.78-.62-.78l.79.59c2.21,1.66,4.85,3.28,7.94,4.62,3.09,1.32,6.63,2.38,10.52,2.85,1.94.22,3.97.35,6.05.23,1.04-.07,2.1-.11,3.16-.21,1.06-.17,2.13-.35,3.22-.53,4.31-.91,8.7-2.6,12.79-5.2,4.08-2.59,7.85-6.09,10.86-10.37,3-4.27,5.25-9.32,6.28-14.78,1.01-5.46.86-11.3-.63-16.93-1.5-5.61-4.24-11.09-8.31-15.57l-1.57-1.7c-.52-.57-1.13-1.04-1.69-1.56-.58-.49-1.11-1.05-1.74-1.49l-1.84-1.35c-.6-.47-1.25-.85-1.9-1.23l-1.94-1.15c-.68-.32-1.36-.64-2.03-.96-.68-.31-1.34-.67-2.05-.89-5.55-2.14-11.45-2.93-17.09-2.47-5.64.45-11.02,2.12-15.63,4.76-4.63,2.62-8.52,6.11-11.52,9.99-3.01,3.88-5.12,8.16-6.42,12.42-1.29,4.27-1.62,8.51-1.58,12.43.27,7.9,2.94,14.38,5.8,18.95l.04.06-.04.06c-5.19,9.19-7.71,13.65-8.15,14.43.42-.78,2.88-5.28,7.93-14.55v.13c-2.9-4.58-5.64-11.1-5.94-19.07-.05-3.96.26-8.24,1.55-12.56,1.3-4.3,3.42-8.63,6.45-12.57,3.02-3.94,6.96-7.47,11.64-10.13,4.66-2.69,10.12-4.38,15.82-4.84,5.71-.47,11.69.32,17.32,2.49.72.22,1.39.59,2.08.9.68.32,1.37.65,2.06.98l1.97,1.17c.66.39,1.32.77,1.93,1.25l1.86,1.37c.64.44,1.17,1.01,1.76,1.51.57.53,1.19,1,1.71,1.58l1.59,1.72c4.13,4.55,6.91,10.09,8.42,15.79,1.5,5.71,1.65,11.63.62,17.16-1.04,5.54-3.33,10.65-6.38,14.96-3.05,4.33-6.87,7.86-11.01,10.47-4.14,2.62-8.59,4.32-12.95,5.23-1.1.18-2.18.35-3.25.52-1.08.1-2.15.14-3.2.21-2.1.12-4.15-.02-6.11-.25-3.93-.48-7.49-1.57-10.6-2.92-3.11-1.37-5.76-3.02-7.97-4.71l.18-.18v.02s.14.16.14.16l-.19.05c-11.06,2.63-16.53,3.93-17.43,4.15Z"/>
      </g>
      <g>
        <path class="cls-5" d="m490.99,32.14l5.01-.05s-.04-4.21,4.33-4.33c2.27-.06,3.46,1.42,3.95,2.55.57,1.32.41,2.83-.32,4.06-.84,1.41-2.69,2.7-6.07,2.14l.11,11.31,4.96-.05-.06-6.62s6.94-1.86,6.86-9.53c-.07-7.33-6.66-8.97-9.48-8.94-2.15.02-9.48.61-9.3,9.46Z"/>
        <rect class="cls-5" x="498.04" y="50.13" width="5.03" height="4.7" transform="translate(-.48 4.81) rotate(-.55)"/>
      </g>
    </g>
  </g>
</svg>